<?xml version="1.0" encoding="utf-8"?>
<!-- Generator: Adobe Illustrator 22.0.0, SVG Export Plug-In . SVG Version: 6.00 Build 0)  -->
<svg version="1.1" id="OBJECTS" xmlns="http://www.w3.org/2000/svg" xmlns:xlink="http://www.w3.org/1999/xlink" x="0px" y="0px"
	 viewBox="0 0 600 600" style="enable-background:new 0 0 600 600;" xml:space="preserve">
<style type="text/css">
	.st0{clip-path:url(#SVGID_2_);}
	.st1{fill:#FFFFFF;}
	.st2{opacity:0.45;fill:#C9D4DB;}
	.st3{fill:#C9D4DB;}
	.st4{fill:#021627;}
	.st5{fill:#000E94;}
	.st6{fill:#A34F2A;}
	.st7{fill:#E9B14D;}
	.st8{fill:#FFA87C;}
</style>
<defs>
	<rect id="SVGID_1_" width="600" height="600"/>
</defs>
<clipPath id="SVGID_2_">
	<use xlink:href="#SVGID_1_"  style="overflow:visible;"/>
</clipPath>
<g id="BACKGROUND" class="st0">
	<g>
		<rect x="-94" y="-25.7" class="st1" width="991" height="660.7"/>
		<g>
			<path class="st2" d="M644.5,55.3c-88.1-12.8-181.6,26.7-270,39.1c-95.6,13.4-180-5.6-273.5-6.2C3.1,87.5-30.5,154.4,8.8,244.2
				c34,77.8,97.6,159.2,163.6,202c131,84.9,345.8,171.5,506.2,65.3C855.5,394.3,857,86.2,644.5,55.3z"/>
			<g>
				<path class="st3" d="M-13.2,242.7c-19.8-49.5-18.5-94.6,3.7-127C9.8,87.4,43.7,72,85.7,72.3c33,0.3,65.3,2.9,96.5,5.4
					c59.2,4.8,115.1,9.3,176.9-0.4c29.8-4.7,60.8-12.9,90.7-20.8c19.9-5.3,40.6-10.7,60.8-15.2l0.4,1.6
					c-20.2,4.4-40.8,9.9-60.8,15.2c-30,7.9-61,16.2-90.9,20.9c-62,9.8-118,5.3-177.3,0.4c-31.2-2.5-63.4-5.1-96.4-5.4
					c-41.5-0.4-74.8,14.8-93.9,42.8c-21.8,31.9-23,76.4-3.5,125.4L-13.2,242.7z"/>
			</g>
			<g>
				<path class="st3" d="M811,359.9l-1.6-0.6c36.7-100.3,23.2-231.5-73.6-288.4l0.8-1.4c43.9,25.8,73.9,68.8,86.8,124.5
					C835.5,246.1,831.1,305,811,359.9z"/>
			</g>
		</g>
	</g>
</g>
<g class="st0">
	<g>
		<g>
			<rect x="-39.9" y="536.1" class="st4" width="869.6" height="3.3"/>
		</g>
		<g>
			<rect x="87.1" y="569.2" class="st4" width="615.6" height="3.3"/>
		</g>
	</g>
	<g>
		<g>
			<path class="st5" d="M495.7,264.3c-8.9,0-16.1-7.9-20.8-15l11.2-7.6c-0.4-5-3.3-18.3-10.1-33.8c-8.1-18.3-18-31.1-27.9-36
				l11.5-24.2c36.6,18.1,54,80.7,52.8,97.3c-1,13.6-8.3,17.6-12.6,18.7C498.4,264.1,497,264.3,495.7,264.3z"/>
		</g>
		<g>
			<path class="st4" d="M376.9,143c-16.9-20.7,10.9-23.1,10.3-40.4c-1.6-52.3,58.3-46.1,65.8-17.9c6.6,24.7,10.9,27.5,13.3,33.6
				c3.3,8.5-1.1,17.4-6.1,24.3c-5.6,7.6-13.8,17.2-12.6,27.5c6.3,57.6-97.1,27.5-66.6-7.6C386.5,156.2,381.6,148.7,376.9,143z"/>
			<g>
				<path class="st4" d="M409.6,198.9c-17.1,0-37.4-10.2-43.7-23.2c-4-8.1-1.8-16.1,5.9-22.7c5.7-4.7,2.4-11.9-1.5-18.3
					c-8.6-14-1.4-19.3,5.5-24.5c4.7-3.5,9.6-7.2,10.3-13.6c2.4-21.4,14.9-34.3,33.3-34.3c0,0,0.1,0,0.1,0
					c17.7,0,34.1,12.2,35.8,26.6c2.2,18,4.8,24.5,6.6,29.3c0.7,1.8,1.3,3.3,1.7,5c1.8,7.4-1.5,15.2-9.7,23.4
					c-0.7,0.7-1.4,1.4-2.1,2.1c-6.1,6-13.7,13.4-14,22.1c-0.5,14.9-7.9,24.6-20.7,27.4C414.8,198.7,412.3,198.9,409.6,198.9z
					 M419.7,63.9c0,0-0.1,0-0.1,0c-17.5,0.1-29.4,12.4-31.7,32.9c-0.8,7.2-6.2,11.2-11,14.8c-6.9,5.2-12.9,9.6-5.1,22.3l0,0
					c4,6.6,7.8,14.9,1.2,20.5c-7.2,6.1-9.2,13.2-5.5,20.7c7,14.4,32,25.3,49.5,21.5c8.5-1.8,18.8-7.8,19.4-25.8
					c0.3-9.4,8.2-17.1,14.5-23.2c0.7-0.7,1.4-1.4,2.1-2.1c7.8-7.7,10.9-15.1,9.2-21.8c-0.4-1.6-0.9-3-1.6-4.8
					c-1.9-4.9-4.6-11.5-6.8-29.7C452.2,75.4,436.5,63.9,419.7,63.9z"/>
			</g>
		</g>
		<g>
			<g>
				<polygon class="st6" points="375.9,560 354.3,549.2 358.5,472.3 385.8,472.3 				"/>
				<polygon class="st6" points="402.4,569.9 351,569.9 354.3,549.2 404.1,567.3 				"/>
				<path class="st4" d="M385.2,559.5c-8,14.6-32.9,0.2-32.9,0.2l-1.7,10.6h54.1l0.4-2.9L385.2,559.5z"/>
			</g>
			<path class="st7" d="M380.2,544.7H351c0,0-13-399.7,86-326h0l-9.9,88L380.2,544.7z"/>
			<g>
				<path class="st1" d="M356.8,544.7c0-0.6-2.6-64.2,0.6-133c4.3-92.6,16.4-150.1,36.1-171l1.2,1.1
					c-46.2,49.2-36.3,300.3-36.2,302.8L356.8,544.7z"/>
			</g>
			<g>
				<polygon class="st6" points="464.8,560 442.5,549.2 438.5,471.9 471.4,472.3 				"/>
				<polygon class="st6" points="491.8,569.9 440.4,569.9 442.5,549.2 493.3,567.3 				"/>
				<path class="st4" d="M474,559.5c-7.2,14.6-32.9,0.2-32.9,0.2l-1.1,10.6h54.1l0.2-2.9L474,559.5z"/>
			</g>
			<path class="st7" d="M437.7,544.6l30.8,0.1c0,0,32.8-213.1,3.8-298.1c-8.9-26.1-26-34.2-48.7-27.9h0L437.7,544.6z"/>
			<g>
				<g>
					<path class="st4" d="M457.7,429.2l-0.9-1.4l9-5.9c3.2-2.1,6.4-4.2,8.9-5.8l0.9,1.4l-8.8,5.8c0,0,0,0,0,0
						C463.4,425.5,460.2,427.6,457.7,429.2z"/>
				</g>
				<g>
					<path class="st4" d="M457.7,440.6l-0.9-1.4l9-5.9c3.2-2.1,6.4-4.2,8.9-5.8l0.9,1.4l-8.8,5.8c0,0,0,0,0,0
						C463.4,436.8,460.2,438.9,457.7,440.6z"/>
				</g>
			</g>
			<g>
				<polygon class="st4" points="381,544.9 379.4,544.5 426.5,306.2 438.1,299.5 438.9,300.9 427.9,307.3 				"/>
			</g>
		</g>
		<path class="st1" d="M472,260.4c3-8.6,5.9-27.8,6.4-30.3c8.1-37.4,0-88.8-48.4-88.8c-2.9,0-5.7,0-8.6,0c-22,0-39.5,11.7-47.5,32.2
			c-5.9,15.4-5.7,31.9-2.7,47.9c0.5,2.6,6.2,28.7,9.2,39H472z"/>
		<g>
			<g>
				<g>
					<path class="st6" d="M424.8,153.3L424.8,153.3c4.9,0,8.9-4,8.8-8.9l0.3-5.2l-0.4-26.8l-17.7,0l0.1,32
						C415.9,149.4,419.9,153.3,424.8,153.3z"/>
					<polygon class="st4" points="437.1,147.8 411.1,124.3 435.4,110.2 					"/>
				</g>
				<path class="st6" d="M434.2,135.5c14.5-0.4,20.5-15.9,18.8-32.1c-2-19.6-13.2-36.1-32.3-31.9
					C385.8,79.1,398.4,136.5,434.2,135.5z"/>
				<g>
					<g>
						<path class="st4" d="M424.8,103.3c0.2,1,1.1,1.6,2.1,1.5c1-0.2,1.6-1.1,1.5-2.1c-0.2-1-1.1-1.6-2.1-1.5
							C425.3,101.4,424.6,102.3,424.8,103.3z"/>
					</g>
					<g>
						<path class="st4" d="M443.8,102c0.2,1,1.1,1.6,2.1,1.5c1-0.2,1.6-1.1,1.5-2.1c-0.2-1-1.1-1.6-2.1-1.5
							C444.3,100.1,443.6,101,443.8,102z"/>
					</g>
					<g>
						<path class="st4" d="M419.6,100.4l-0.9-1.4c3.5-2.4,8.8-2.8,12.2-0.9l-0.8,1.5C427.1,98,422.6,98.4,419.6,100.4z"/>
					</g>
					<g>
						<path class="st4" d="M435,118.3c-4.6,0-7.9-2.3-8.1-2.4l0.9-1.4c0.2,0.2,6,4.1,12.7,0.8l0.7,1.5
							C439,117.9,436.9,118.3,435,118.3z"/>
					</g>
					<g>
						<path class="st4" d="M438.8,112.9l-0.4-1.6l2.8-0.7l-1.9-11.8l0.3-0.3c2.7-2.5,7.2-2.9,10.4-0.8l-0.9,1.4
							c-2.1-1.4-5.6-1.6-8,0.3l2,12.4L438.8,112.9z"/>
					</g>
				</g>
			</g>
			<path class="st4" d="M402.6,110.2c-16.9-38.6,30.1-52.7,45.1-28.2C426.1,75.4,407.3,86.7,402.6,110.2z"/>
			<g>
				<path class="st6" d="M411.1,107.9c0,3.9-3.2,7.1-7.1,7.1c-3.9,0-7.1-3.2-7.1-7.1c0-3.9,3.2-7.1,7.1-7.1
					C407.9,100.8,411.1,104,411.1,107.9z"/>
				<g>
					<polygon class="st4" points="403.2,111.5 402.1,110.3 404.3,108.2 402,105.4 403.3,104.4 406.5,108.3 					"/>
				</g>
			</g>
		</g>
		<g>
			<g>
				<g>
					<g>
						<polygon class="st1" points="441.5,166.3 418.7,172.4 428.6,141.7 441.5,135.6 						"/>
						<polygon class="st1" points="408.8,166.3 431.6,172.4 421.7,141.7 408.8,135.6 						"/>
					</g>
				</g>
			</g>
			<g>
				<g>
					<polygon class="st4" points="431.3,150 429.3,144.4 430.9,143.8 432.1,147.1 439.4,140.3 440.6,141.5 					"/>
				</g>
				<g>
					<polygon class="st4" points="419,150 409.7,141.5 410.9,140.3 418.2,147.1 419.4,143.8 420.9,144.4 					"/>
				</g>
			</g>
			<g>
				<rect x="424.3" y="155.4" class="st4" width="1.7" height="97.8"/>
			</g>
		</g>
		<g>
			<g>
				<path class="st5" d="M369,256c-3.1-14.8-18.3-108.7,39.5-113.8l10.3,78.1L395.4,305l-32.6-8.7C362.8,296.3,368.9,255.9,369,256z
					"/>
				<g>
					<g>
						<polygon class="st4" points="415.3,223.5 391.8,180.7 403.2,167.6 393.6,159.3 404.4,144.5 405.7,145.5 395.8,159 
							405.5,167.5 393.8,180.9 416.8,222.7 						"/>
					</g>
				</g>
			</g>
			<g>
				<path class="st5" d="M481.2,256c3.1-14.8,18.3-108.7-39.5-113.8l-10.3,78.1l23.5,84.8l32.6-8.7
					C487.5,296.3,481.4,255.9,481.2,256z"/>
				<g>
					<g>
						<polygon class="st4" points="435,223.5 433.5,222.7 456.4,180.9 444.8,167.5 454.5,159 444.6,145.5 445.9,144.5 456.7,159.3 
							447.1,167.6 458.5,180.7 						"/>
					</g>
				</g>
				<g>
					<path class="st4" d="M486.7,296.4c-1.6-10.3-5.6-36.6-6.2-39.9l-0.2-0.1l0.1-0.6c0.1-0.7,13.5-65.7-9.4-96.7
						c-7.1-9.6-16.9-15-29.3-16.1l0.1-1.6c12.9,1.1,23.2,6.8,30.5,16.7c23.4,31.6,10.3,95.2,9.7,98.1c0.5,2.1,1.7,9.9,6.3,40
						L486.7,296.4z"/>
				</g>
			</g>
			<g>
				
					<rect x="379" y="283.4" transform="matrix(0.4167 -0.9091 0.9091 0.4167 -46.9565 517.5398)" class="st4" width="1.7" height="24"/>
			</g>
			<g>
				
					<rect x="457.7" y="294.5" transform="matrix(0.9089 -0.417 0.417 0.9089 -80.3711 222.7642)" class="st4" width="24" height="1.7"/>
			</g>
		</g>
		<g>
			<polygon class="st4" points="474.7,270.8 415.2,270.8 422.6,185.9 482.2,185.9 			"/>
			<g>
				<path class="st1" d="M445.9,189.5c-1,0-1.8,0.8-1.8,1.8c0,1,0.8,1.8,1.8,1.8c1,0,1.8-0.8,1.8-1.8
					C447.8,190.3,447,189.5,445.9,189.5z"/>
				<path class="st1" d="M458.7,189.5c-1,0-1.8,0.8-1.8,1.8c0,1,0.8,1.8,1.8,1.8c1,0,1.8-0.8,1.8-1.8
					C460.5,190.3,459.7,189.5,458.7,189.5z"/>
			</g>
		</g>
		<g>
			<path class="st5" d="M393.4,230.3c-22.5,9-28.3,5.8-29.5,4.6c-0.6-0.6-2.3-2.2-2.1-6.9c0.5-12,11.7-30.6,26.1-44.8v-33.1
				l-0.2-0.4c-2.9,1.8-5.9,4-8.8,6.4c-20.8,16.7-42.3,46.4-43.4,70.8c-0.5,10.9,3.1,20.3,10.2,27.1c6.9,6.5,15.5,8.7,24.1,8.7
				c13.4,0,26.7-5.3,33.4-8l0.7-0.3l-9.7-24.5L393.4,230.3z"/>
			<g>
				<path class="st6" d="M435.3,239.4c-0.4-1.2-2-1.8-3.2-1.5c0,0,6.1-1.9,4.9-4.3c-1-1.9-3.6-1.6-3.6-1.6s5.3-1.7,4.1-4
					c-1.2-2.4-6.5-0.7-6.5-0.7c1.3-0.4,1.9-1.8,1.2-3.1c-1.7-3.3-13.1,1.4-13.1,1.4s3.6-4.2,1.1-6.4c-2.7-2.4-18.8,12-18.8,12
					c-0.8,0.9,4.8,17.4,4.8,17.4l18.2-3.1l1.2-0.4C425.5,244.9,436.2,242.1,435.3,239.4z"/>
				<g>
					<line class="st1" x1="430.7" y1="227.7" x2="420.4" y2="230.6"/>
					
						<rect x="420.2" y="228.3" transform="matrix(0.9624 -0.2718 0.2718 0.9624 -46.2498 124.2826)" class="st4" width="10.6" height="1.7"/>
				</g>
				<g>
					<line class="st1" x1="433.4" y1="232.2" x2="422.8" y2="235.3"/>
					
						<rect x="422.6" y="232.9" transform="matrix(0.9594 -0.282 0.282 0.9594 -48.5438 130.2132)" class="st4" width="11" height="1.7"/>
				</g>
				<g>
					<line class="st1" x1="432" y1="237.9" x2="425.2" y2="240.1"/>
					
						<rect x="425.1" y="238.2" transform="matrix(0.9538 -0.3004 0.3004 0.9538 -51.9944 139.7852)" class="st4" width="7.1" height="1.7"/>
				</g>
			</g>
			<g>
				<path class="st4" d="M369.8,263.6c-10.1,0-18.4-3-24.7-9c-7.3-7-10.9-16.6-10.5-27.7c0.6-12.9,6-26.7,16.7-42.1
					c6.4-9.2,13.8-17.6,22.1-25.1c7.9-7.1,17.5-14.9,28.5-18.9l0.6,1.6c-10.8,3.9-20.2,11.6-28,18.6c-8.2,7.4-15.5,15.7-21.8,24.8
					c-10.5,15.2-15.9,28.7-16.4,41.3c-0.5,10.7,3,19.8,9.9,26.5c5.9,5.7,13.8,8.5,23.5,8.5c0,0,0,0,0,0c13.2,0,26.6-5.3,33.1-7.9
					l0.6,1.5C396.9,258.2,383.3,263.6,369.8,263.6C369.8,263.6,369.8,263.6,369.8,263.6z"/>
			</g>
			<g>
				<path class="st4" d="M369.7,237.3c-3.8,0-5.6-1-6.4-1.7c-0.7-0.7-2.5-2.4-2.3-7.5c0.4-9.1,6.7-22.2,17-34.9l1.3,1
					c-9.9,12.3-16.2,25.3-16.6,34c-0.2,4.4,1.3,5.8,1.8,6.3c0.8,0.8,6,4.2,28.6-4.8l0.6,1.5C381.6,235.9,374.2,237.3,369.7,237.3z"
					/>
			</g>
		</g>
		<g>
			<path class="st6" d="M457.7,239.4c0-1.3,2-1.8,3.2-1.5c0,0-6.1-1.9-4.9-4.3c1-1.9,3.6-1.6,3.6-1.6s-5.3-1.7-4.1-4
				c1.2-2.4,6.5-0.7,6.5-0.7c-1.3-0.4-1.9-1.8-1.2-3.1c1.7-3.3,13.1,1.4,13.1,1.4s-3.6-4.2-1.1-6.4c2.7-2.4,17.3,6.6,18.8,12
				c1.3,4.3,0.2,14.5-3.8,16.6C483.8,249.8,457.9,244.9,457.7,239.4z"/>
			<g>
				<line class="st1" x1="462.3" y1="227.7" x2="472.6" y2="230.6"/>
				
					<rect x="466.6" y="223.8" transform="matrix(0.2721 -0.9623 0.9623 0.2721 119.7718 616.5621)" class="st4" width="1.7" height="10.6"/>
			</g>
			<g>
				<line class="st1" x1="459.6" y1="232.2" x2="470.2" y2="235.3"/>
				
					<rect x="464.1" y="228.3" transform="matrix(0.2821 -0.9594 0.9594 0.2821 109.4646 613.8064)" class="st4" width="1.7" height="11"/>
			</g>
			<g>
				<line class="st1" x1="461" y1="237.9" x2="467.8" y2="240.1"/>
				
					<rect x="463.5" y="235.4" transform="matrix(0.3002 -0.9539 0.9539 0.3002 96.9763 610.1839)" class="st4" width="1.7" height="7.1"/>
			</g>
		</g>
	</g>
	<g>
		<g>
			<path class="st7" d="M814.9,298.7c-7.4,0-13.4-6.6-17.3-12.5l9.3-6.4c-0.3-4.2-2.7-15.3-8.4-28.2c-6.7-15.3-15-25.9-23.3-30
				l9.6-20.1c30.5,15.1,45,67.3,44,81.1c-0.8,11.3-6.9,14.6-10.5,15.6C817.1,298.5,816,298.7,814.9,298.7z"/>
		</g>
		<g>
			<g>
				<polygon class="st6" points="790.8,527.6 773.9,519.2 773.9,459 799.9,459 				"/>
				<polygon class="st6" points="811.4,535.3 771.4,535.3 773.9,519.2 812.7,533.3 				"/>
			</g>
			<polygon class="st4" points="791.8,524.9 813.9,532.9 811.8,536.1 770.4,536.1 773.1,523.5 			"/>
		</g>
		<g>
			<g>
				<polygon class="st6" points="717,527.6 700.1,519.2 700.2,459 721.8,459.1 				"/>
				<polygon class="st6" points="737.6,535.3 697.6,535.3 700.1,519.2 739,533.3 				"/>
			</g>
			<polygon class="st4" points="718,524.9 740.2,532.9 738.1,536.1 696.7,536.1 698.7,523.5 			"/>
		</g>
		<path class="st5" d="M741.3,487h-55.4c0,0,2.2-229.1,81.9-226h0L741.3,487z"/>
		<path class="st5" d="M760.3,487h48c0,0,26.2-226-48-226l0,0V487z"/>
		<path class="st1" d="M724.4,291.3c-2.3-6.7-4.6-21.6-5-23.6c-6.3-29.2,0-69.2,37.7-69.2c2.2,0,4.4,0,6.7,0c17.1,0,30.8,9.1,37,25
			c4.6,12,4.4,24.9,2.1,37.3c-0.4,2-4.9,22.4-7.2,30.4H724.4z"/>
		<g>
			<path class="st1" d="M695.8,487c0-0.5,0-53.7,9.2-109.2c12.4-74.8,34.6-118.1,66.1-128.7l0.4,1.3c-38.5,13-56.7,76.6-65.1,127.6
				c-9.2,55.4-9.2,108.5-9.2,109L695.8,487z"/>
		</g>
		<g>
			<g>
				<path class="st4" d="M788.5,416.3l-0.8-1.2l7-4.6c2.5-1.6,5-3.3,6.9-4.5l0.8,1.2l-6.9,4.5c0,0,0,0,0,0
					C793,413.3,790.5,415,788.5,416.3z"/>
			</g>
			<g>
				<path class="st4" d="M788.5,425.1l-0.8-1.2l7-4.6c2.5-1.6,5-3.3,6.9-4.5l0.8,1.2l-6.9,4.5c0,0,0,0,0,0
					C793,422.2,790.5,423.8,788.5,425.1z"/>
			</g>
		</g>
		<g>
			<polygon class="st4" points="759.8,486.8 759.6,311.1 770.7,306.3 771.2,307.6 761,312 761.2,486.8 			"/>
		</g>
		<g>
			
				<rect x="751.3" y="282.7" transform="matrix(0.9954 -9.562632e-02 9.562632e-02 0.9954 -23.6145 73.9791)" class="st4" width="17.6" height="1.4"/>
		</g>
		<g>
			<path class="st7" d="M752.9,196.8c4,63.3-13.9,155.2-13.9,155.2l-41.6-5.9c0,0,18.7-60.4,18.8-60.4
				C713.6,273.8,700.8,198.4,752.9,196.8z"/>
		</g>
		<g>
			<path class="st7" d="M769.8,196.8c-4,63.3,9.5,156,9.5,156l38.6-5c0,0-11.2-62-11.3-62C809.1,273.8,821.9,198.4,769.8,196.8z"/>
			<g>
				<polygon class="st4" points="783.5,243.3 782.1,243.1 784.5,227.5 775.1,214.6 783.3,201.1 784.5,201.9 776.8,214.5 
					785.9,227.2 				"/>
			</g>
			<g>
				<path class="st4" d="M817.1,348c-3.8-20.8-10.9-60.4-11.3-61.9c0-0.1,0-0.2,0-0.4c1.1-5.2,10.2-51.6-8.2-75
					c-6.6-8.3-16-12.8-27.9-13.1l0-1.4c12.4,0.4,22.2,5,29,13.7c18.8,23.9,9.5,70.9,8.4,76.2l0,0c0.6,2.4,2.5,13,11.3,61.7
					L817.1,348z"/>
			</g>
		</g>
		<g>
			<g>
				<path class="st6" d="M717.9,315c0.7-0.8,0.6-2.1-0.1-2.9c0,0,3.4,3.7,4.7,2c1-1.4-0.1-3.2-0.1-3.2s3,3.2,4.2,1.5
					c1.2-1.7-1.7-4.9-1.7-4.9c0.7,0.8,1.9,0.7,2.6-0.3c1.7-2.4-5.4-9-5.4-9s4.2,1.1,4.8-1.5c0.8-2.8-14.8-9.3-14.8-9.3
					c-0.9-0.3-10.4,9.7-10.4,9.7l8.4,12l0.7,0.7C710.7,309.9,716.4,316.7,717.9,315z"/>
				<g>
					<line class="st1" x1="725.4" y1="308.1" x2="719" y2="301.1"/>
					
						<rect x="721.5" y="299.9" transform="matrix(0.7354 -0.6776 0.6776 0.7354 -15.3327 569.9662)" class="st4" width="1.4" height="9.5"/>
				</g>
				<g>
					<line class="st1" x1="722.9" y1="311.5" x2="716.5" y2="304.6"/>
					
						<rect x="719" y="303.3" transform="matrix(0.7354 -0.6777 0.6777 0.7354 -18.3028 569.2358)" class="st4" width="1.4" height="9.5"/>
				</g>
				<g>
					<line class="st1" x1="718.3" y1="312.7" x2="714" y2="308"/>
					
						<rect x="715.5" y="307.2" transform="matrix(0.7354 -0.6776 0.6776 0.7354 -20.8025 567.3708)" class="st4" width="1.4" height="6.3"/>
				</g>
			</g>
			<g>
				<path class="st6" d="M703.9,300.2c-1.2-0.9-28.6-22.4-24.5-48.9c2.8-18.4,19.7-33.5,50.4-44.9l5.2,14
					c-24.8,9.2-38.9,20.7-40.8,33.1c-2.7,17.8,18.7,34.7,18.9,34.9L703.9,300.2z"/>
			</g>
			<path class="st7" d="M707.6,282.3c0.1,0-13.3,13.6-13.3,13.6c-7.4-8.1-19.6-25.8-18.2-40.5c1.8-19.3,30.8-54.3,76.5-58.5
				l-15.7,25.5C676.1,241.8,701.9,276.9,707.6,282.3z"/>
		</g>
		<g>
			<g>
				<circle class="st4" cx="745.1" cy="131.1" r="19.2"/>
				<path class="st5" d="M758.7,131.1c1.9,0,3.8,0.2,5.6,0.5c-0.3,10.4-8.8,18.7-19.2,18.7c-4.2,0-8.1-1.4-11.3-3.6
					C737.9,137.6,747.5,131.1,758.7,131.1z"/>
			</g>
			<ellipse class="st4" cx="761.1" cy="159.6" rx="26.9" ry="25.2"/>
			<g>
				<g>
					<g>
						<path class="st6" d="M761.6,205.6L761.6,205.6c3.8,0,6.9-3.1,6.9-6.9l0.2-4.1l-0.3-20.9l-13.8,0l0,24.9
							C754.7,202.5,757.8,205.6,761.6,205.6z"/>
						<path class="st4" d="M754.7,181.4l13.8-7l0.3,20.2l-0.2,4.1c0,0.1,0,0.1,0,0.2l-13.8-11.4L754.7,181.4z"/>
					</g>
					<path class="st6" d="M769.9,191.5c11.8-0.4,16.8-12.6,15.6-25.2c-1.5-15.3-10.5-28.1-26.1-24.7
						C731,147.9,740.8,192.6,769.9,191.5z"/>
					<g>
						<g>
							<path class="st4" d="M761.6,166.7c0.1,0.8,0.8,1.3,1.6,1.2c0.8-0.1,1.3-0.8,1.2-1.6c-0.1-0.8-0.8-1.3-1.6-1.2
								C762,165.2,761.5,165.9,761.6,166.7z"/>
						</g>
						<g>
							<path class="st4" d="M776.4,165.7c0.1,0.8,0.8,1.3,1.6,1.2c0.8-0.1,1.3-0.8,1.2-1.6c-0.1-0.8-0.8-1.3-1.6-1.2
								C776.8,164.2,776.3,164.9,776.4,165.7z"/>
						</g>
						<g>
							<path class="st4" d="M758.3,163.8l-0.8-1.2c2.5-1.7,6.1-2,9.5-0.7l-0.5,1.3C763.5,162.1,760.5,162.3,758.3,163.8z"/>
						</g>
						<g>
							<path class="st4" d="M770.6,177.2c-3.7,0-6.4-1.3-6.6-1.4l0.6-1.3c0,0,4.6,2.3,10.1,0.6l0.4,1.3
								C773.5,177,772,177.2,770.6,177.2z"/>
						</g>
						<g>
							<path class="st4" d="M773.2,173.5l-0.2-1.4l2.4-0.4l-1.8-9.3l0.3-0.3c2.1-2,5.7-2.3,8.2-0.6l-0.8,1.2
								c-1.6-1.1-4.3-1.2-6.2,0.2l1.9,9.9L773.2,173.5z"/>
						</g>
					</g>
				</g>
				<g>
					<path class="st4" d="M745.1,141.5c41.4-16.1,41.7,20,41.7,20l-18.1-12.7l-25.2,27.9C743.5,176.8,730.7,147.2,745.1,141.5z"/>
				</g>
			</g>
		</g>
		<g>
			<polygon class="st4" points="799.3,293.2 771.3,293.1 774.8,246 802.8,246 			"/>
			<g>
				<polygon class="st4" points="769.1,290.3 767.7,290.2 771.2,242.4 799.9,242.4 799.9,243.8 772.6,243.8 				"/>
			</g>
		</g>
		<g>
			<path class="st6" d="M783.3,277.2c0-1.1,1.7-1.5,2.7-1.2c0,0-5.1-1.6-4.1-3.6c0.8-1.6,3-1.4,3-1.4s-4.4-1.4-3.4-3.4
				c1-2,5.4-0.6,5.4-0.6c-1.1-0.3-1.5-1.5-1-2.6c1.4-2.8,10.9,1.1,10.9,1.1s-3-3.5-0.9-5.3c2.3-2,14.4,5.5,15.7,10
				c1.1,3.6,0.2,12.1-3.1,13.8C805,285.9,783.4,281.8,783.3,277.2z"/>
			<g>
				<line class="st1" x1="787.1" y1="267.4" x2="795.6" y2="269.8"/>
				
					<rect x="790.7" y="264.2" transform="matrix(0.2722 -0.9623 0.9623 0.2722 317.4867 957.0088)" class="st4" width="1.4" height="8.9"/>
			</g>
			<g>
				<line class="st1" x1="784.8" y1="271.2" x2="793.6" y2="273.8"/>
				
					<rect x="788.5" y="267.9" transform="matrix(0.2821 -0.9594 0.9594 0.2821 305.1021 952.7737)" class="st4" width="1.4" height="9.2"/>
			</g>
			<g>
				<line class="st1" x1="786" y1="276" x2="791.6" y2="277.8"/>
				
					<rect x="788.1" y="273.9" transform="matrix(0.3002 -0.9539 0.9539 0.3002 287.8815 946.1572)" class="st4" width="1.4" height="5.9"/>
			</g>
		</g>
		<g>
			<polygon class="st4" points="744.1,286.2 736.7,227.2 745.9,214.5 738.1,201.9 739.3,201.1 747.6,214.6 738.2,227.5 745.5,286.1 
							"/>
		</g>
	</g>
	<g>
		<g>
			<g>
				<path class="st8" d="M309.1,342.7c-1,0.1-2-0.9-2.1-1.9c0,0,0.5,5.1-1.6,5c-1.7-0.1-2.3-2.1-2.3-2.1s0.4,4.4-1.7,4.2
					c-2.1-0.1-2.5-4.5-2.5-4.5c0.1,1.1-0.8,1.9-1.9,1.8c-3-0.2-3.1-10.1-3.1-10.1s-2,3.9-4.4,2.8c-2.6-1.2,2.9-17.6,2.9-17.6
					c0.4-0.9,14.3-1.9,14.3-1.9S313.1,342.3,309.1,342.7z"/>
				<g>
					<line class="st1" x1="299.1" y1="343" x2="298" y2="334.5"/>
					
						<rect x="297.9" y="334.5" transform="matrix(0.9921 -0.1258 0.1258 0.9921 -40.2472 40.2535)" class="st4" width="1.4" height="8.5"/>
				</g>
				<g>
					<line class="st1" x1="303.3" y1="343.6" x2="302.3" y2="334.8"/>
					
						<rect x="302.1" y="334.8" transform="matrix(0.9933 -0.1153 0.1153 0.9933 -37.1015 37.1859)" class="st4" width="1.4" height="8.8"/>
				</g>
				<g>
					<line class="st1" x1="307.1" y1="340.8" x2="306.8" y2="334.6"/>
					
						<rect x="306.2" y="334.6" transform="matrix(0.999 -4.502880e-02 4.502880e-02 0.999 -14.8938 14.1629)" class="st4" width="1.4" height="6.2"/>
				</g>
			</g>
			<g>
				<path class="st8" d="M302.8,332l-5.5-13.7c-3.1,1.2-4.6,4.3-4.6,6.6c0-2.4-2-23.3-3.9-41.9l14.7-1.5c0,0,1.1,10.7,2.1,21.4
					c0.5,5.4,1,10.7,1.4,14.8c0.2,2.1,0.3,3.8,0.4,5C307.5,324.9,307.8,330,302.8,332z"/>
			</g>
			<g>
				<path class="st5" d="M310.1,308.7c-7.3,0.2-14.6,0.5-22,0.9c-2.7-33.9-23.5-97.8-23.5-97.8s1.6-6.8,9.8-9.1
					C297.7,218,306.7,272.8,310.1,308.7z"/>
			</g>
		</g>
		<g>
			<g>
				<polygon class="st8" points="208.7,528 191.4,519.4 194.8,457.9 216.6,457.9 				"/>
				<polygon class="st8" points="229.9,535.9 188.8,535.9 191.4,519.4 231.2,533.8 				"/>
				<path class="st4" d="M216.1,527.6c-6.4,11.7-26.3,0.1-26.3,0.1l-1.3,8.4h43.2l0.3-2.3L216.1,527.6z"/>
				<g>
					
						<rect x="189.5" y="526" transform="matrix(0.9943 -0.1066 0.1066 0.9943 -55.0153 24.2557)" class="st4" width="19.8" height="1.4"/>
				</g>
			</g>
			<path class="st7" d="M212.1,515.7h-23.3c0,0-10.4-319.4,68.7-260.4l0,0l-7.9,70.3L212.1,515.7z"/>
			<g>
				<path class="st1" d="M193.4,515.8c-0.3-8.3-8-203.2,29.3-242.9l1,1c-36.9,39.3-29,239.9-28.9,241.9L193.4,515.8z"/>
			</g>
			<g>
				<polygon class="st8" points="279.7,528 261.9,519.4 258.7,457.6 285,457.9 				"/>
				<polygon class="st8" points="301.3,535.9 260.2,535.9 261.9,519.4 302.5,533.8 				"/>
				<path class="st4" d="M287.1,527.6c-5.8,11.7-26.3,0.1-26.3,0.1l-0.9,8.4h43.2l0.2-2.3L287.1,527.6z"/>
				<g>
					
						<rect x="260.4" y="526" transform="matrix(0.9943 -0.1065 0.1065 0.9943 -54.5647 31.7875)" class="st4" width="19.8" height="1.4"/>
				</g>
			</g>
			<path class="st7" d="M258.1,515.6l24.6,0.1c0,0,24.8-170.2,1.6-238.2c-7.1-20.8-19.4-27.3-37.5-22.3l0,0L258.1,515.6z"/>
			<g>
				<g>
					<path class="st4" d="M274.1,423.5l-0.8-1.2l7-4.6c0,0,0,0,0,0c2.6-1.7,5.1-3.4,7.2-4.7l0.8,1.2l-7.2,4.7
						C278.6,420.6,276.1,422.3,274.1,423.5z"/>
				</g>
				<g>
					<path class="st4" d="M274.1,432.6l-0.8-1.2l7-4.6c0,0,0,0,0,0c2.6-1.7,5.1-3.4,7.2-4.7l0.8,1.2l-7.2,4.7
						C278.6,429.6,276.1,431.3,274.1,432.6z"/>
				</g>
			</g>
			<g>
				<polygon class="st4" points="212.8,515.9 211.4,515.6 249,325.2 258.3,319.8 259,321 250.3,326.1 				"/>
			</g>
		</g>
		<path class="st4" d="M209.2,169.9c3.2-4.3,8.2-6.7,13.2-8.5c5-1.8,10.3-3,15-5.5c4.7-2.5,8.9-6.6,9.9-11.8l11.6,16.1
			c6.1,5.1,12.5,10.7,15.1,18.2c2.8,8.2,0.3,17.7-5.5,24.2c-5.8,6.4-14.6,9.8-23.3,9.8c-8.7,0-17.2-3.1-24.4-7.9
			c-5.7-3.8-10.7-8.8-13.3-15.1C204.9,183.1,205.1,175.4,209.2,169.9z"/>
		<ellipse class="st4" cx="245.7" cy="158.2" rx="25.8" ry="24.2"/>
		<g>
			<g>
				<g>
					<path class="st8" d="M246.2,202.3L246.2,202.3c3.7,0,6.6-3,6.6-6.6l0.2-3.9l-0.3-20l-13.2,0l0,23.9
						C239.5,199.3,242.5,202.3,246.2,202.3z"/>
					<path class="st4" d="M239.5,179.1l16.7-6.7l-3.5,23.3c0,0.1,0,0.1,0,0.2l-13.2-12.2L239.5,179.1z"/>
				</g>
				<path class="st8" d="M254.1,188.8c11.3-0.4,16.1-12,14.9-24.2c-1.4-14.7-10-26.9-25-23.6C216.7,147,226.1,189.8,254.1,188.8z"/>
				<g>
					<g>
						<path class="st4" d="M246.1,165c0.1,0.7,0.8,1.2,1.5,1.1c0.7-0.1,1.2-0.8,1.1-1.5c-0.1-0.7-0.8-1.2-1.5-1.1
							C246.5,163.6,246,164.2,246.1,165z"/>
					</g>
					<g>
						<path class="st4" d="M260.3,164c0.1,0.7,0.8,1.2,1.5,1.1c0.7-0.1,1.2-0.8,1.1-1.5c-0.1-0.7-0.8-1.2-1.5-1.1
							C260.7,162.6,260.2,163.3,260.3,164z"/>
					</g>
					<g>
						<path class="st4" d="M243,162.2l-0.8-1.2c2.4-1.6,5.8-1.9,9.1-0.7l-0.5,1.3C248,160.6,245,160.8,243,162.2z"/>
					</g>
					<g>
						<path class="st4" d="M254.7,175.1c-3.6,0-6.2-1.3-6.3-1.3l0.6-1.3c0,0,4.4,2.2,9.6,0.6l0.4,1.3
							C257.5,174.9,256.1,175.1,254.7,175.1z"/>
					</g>
					<g>
						<path class="st4" d="M257.3,171.5l-0.2-1.4l2.2-0.4l-1.7-8.9l0.3-0.3c2.1-1.9,5.5-2.2,7.9-0.6l-0.8,1.2
							c-1.5-1-4.1-1.2-5.9,0.2l1.9,9.5L257.3,171.5z"/>
					</g>
				</g>
			</g>
			<g>
				<path class="st4" d="M232.3,140.1c28.8-16.2,37.1,15.6,37.1,15.6h-32.2l-7,22.3C230.3,178,219.4,147.3,232.3,140.1z"/>
			</g>
		</g>
		<g>
			<g>
				<path class="st1" d="M263.9,171c-4,0-7.2-3.2-7.2-7.2c0-4,3.2-7.2,7.2-7.2c4,0,7.2,3.2,7.2,7.2C271.1,167.8,267.8,171,263.9,171
					z M263.9,158c-3.2,0-5.8,2.6-5.8,5.8c0,3.2,2.6,5.8,5.8,5.8c3.2,0,5.8-2.6,5.8-5.8C269.7,160.6,267.1,158,263.9,158z"/>
			</g>
			<g>
				<path class="st1" d="M246.9,171c-4,0-7.2-3.2-7.2-7.2c0-4,3.2-7.2,7.2-7.2c4,0,7.2,3.2,7.2,7.2C254.2,167.8,250.9,171,246.9,171
					z M246.9,158c-3.2,0-5.8,2.6-5.8,5.8c0,3.2,2.6,5.8,5.8,5.8c3.2,0,5.8-2.6,5.8-5.8C252.8,160.6,250.2,158,246.9,158z"/>
			</g>
			<g>
				<rect x="253.5" y="161.9" class="st1" width="3.8" height="1.4"/>
			</g>
			<g>
				<rect x="233.7" y="162.4" class="st1" width="6.3" height="1.4"/>
			</g>
		</g>
		<g>
			<g>
				<path class="st5" d="M286.9,289.2c0,0,3.5-22.2,3.9-24.1c6.7-29.9,0-70.9-40-70.9c-2.4,0-4.7,0-7.1,0
					c-18.2,0-32.7,9.3-39.2,25.7c-4.9,12.3-4.7,25.5-2.3,38.2c0.4,2.1,4.9,31.1,4.9,31.1H286.9z"/>
			</g>
			<g>
				<path class="st4" d="M286.9,289.9h-79.7v-1.4h79.1c0.6-3.6,3.4-21.8,3.8-23.6c3.9-17.3,3.7-41.3-8.4-56.5
					c-7.2-9-17.6-13.5-30.9-13.5v-1.4c13.7,0,24.5,4.7,32,14.1c12.5,15.6,12.7,40,8.7,57.7c-0.4,1.9-3.9,23.9-3.9,24.1l-0.1,0.6
					H286.9z"/>
			</g>
			
				<rect x="235.4" y="191.3" transform="matrix(-1 -1.224647e-16 1.224647e-16 -1 493.6955 401.3773)" class="st5" width="23" height="18.7"/>
			<g>
				<g>
					<rect x="254.7" y="192.2" class="st4" width="1.4" height="6.8"/>
				</g>
				<g>
					<rect x="249" y="192.2" class="st4" width="1.4" height="6.8"/>
				</g>
				<g>
					<rect x="243.3" y="192.2" class="st4" width="1.4" height="6.8"/>
				</g>
				<g>
					<rect x="237.6" y="192.2" class="st4" width="1.4" height="6.8"/>
				</g>
			</g>
		</g>
		<g>
			
				<rect x="248.6" y="252.5" transform="matrix(8.420690e-02 -0.9964 0.9964 8.420690e-02 -52.5901 506.5733)" class="st4" width="1.4" height="58.8"/>
		</g>
		<g>
			<g>
				<path class="st1" d="M245.4,301.4L177,331c-0.9,0.4-2,0-2.4-0.9l-20.4-47c-0.4-0.9,0-2,0.9-2.4l68.4-29.6c0.9-0.4,2,0,2.4,0.9
					l20.4,47C246.7,299.9,246.3,301,245.4,301.4z"/>
				<path class="st4" d="M176.6,331.7c-1.2,0-2.3-0.7-2.8-1.8l-19.9-46c-0.7-1.5,0-3.4,1.6-4l67.3-29.2c0.8-0.3,1.6-0.3,2.3,0
					c0.8,0.3,1.4,0.9,1.7,1.6l19.9,46c0.3,0.8,0.3,1.6,0,2.3c-0.3,0.8-0.9,1.4-1.6,1.7l-67.3,29.2
					C177.4,331.6,177,331.7,176.6,331.7z M224,251.8c-0.2,0-0.4,0-0.7,0.1L156,281.1c-0.8,0.4-1.2,1.3-0.9,2.2l19.9,46
					c0.4,0.8,1.3,1.2,2.2,0.9l67.3-29.2c0.4-0.2,0.7-0.5,0.9-0.9c0.2-0.4,0.2-0.9,0-1.3l-19.9-46c-0.2-0.4-0.5-0.7-0.9-0.9
					C224.4,251.9,224.2,251.8,224,251.8z"/>
			</g>
			<g>
				<path class="st4" d="M200.3,298.4c-0.9,0-1.8-0.2-2.7-0.5c-1.8-0.7-3.2-2.1-4-3.9c-0.8-1.8-0.8-3.8-0.1-5.6
					c0.7-1.8,2.1-3.2,3.9-4c3.7-1.6,8,0.1,9.6,3.8c0.8,1.8,0.8,3.8,0.1,5.6c-0.7,1.8-2.1,3.2-3.9,4
					C202.3,298.2,201.3,298.4,200.3,298.4z M200.3,285.1c-0.8,0-1.6,0.2-2.3,0.5c-1.4,0.6-2.6,1.8-3.1,3.3c-0.6,1.5-0.6,3.1,0.1,4.5
					c0.6,1.4,1.8,2.6,3.3,3.1c1.5,0.6,3.1,0.6,4.5-0.1c1.4-0.6,2.6-1.8,3.1-3.3c0.6-1.5,0.6-3.1-0.1-4.5
					C204.8,286.5,202.6,285.1,200.3,285.1z"/>
			</g>
		</g>
		<g>
			<g>
				<path class="st8" d="M195.1,310.7c-1.2-0.9-29.6-21.9-26.7-51.6c2.1-21.7,20.1-41,53.8-57.2l7.2,14.9
					c-27.6,13.3-43,28.5-44.5,43.8c-1.9,20.1,20,37,20.2,37.2L195.1,310.7z"/>
			</g>
			<path class="st5" d="M199.2,290.4c0.1,0-16.4,13.2-16.4,13.2c-8-9.5-18.8-27.6-17.3-44.9c2-22.7,22.3-44.9,60.2-60.8l4.8,23.9
				C165.4,241.1,193.1,284.1,199.2,290.4z"/>
			<g>
				<path class="st8" d="M210.5,321.2c0.6-0.9,0.2-2.2-0.6-2.8c0,0,4.1,3,5.1,1.1c0.8-1.5-0.7-3.1-0.7-3.1s3.6,2.6,4.5,0.7
					c1-1.9-2.6-4.5-2.6-4.5c0.9,0.6,2,0.3,2.6-0.7c1.3-2.7-7.1-7.8-7.1-7.8s4.4,0.3,4.7-2.3c0.3-2.9-16.7-6.4-16.7-6.4
					c-0.9-0.1-8.9,11.3-8.9,11.3l10.6,10.2l0.8,0.6C202.3,317.6,209.2,323.1,210.5,321.2z"/>
				<g>
					<line class="st1" x1="215.8" y1="312.7" x2="209.1" y2="307.5"/>
					
						<rect x="211.8" y="305.8" transform="matrix(0.6117 -0.7911 0.7911 0.6117 -162.8137 288.5061)" class="st4" width="1.4" height="8.5"/>
				</g>
				<g>
					<line class="st1" x1="214.2" y1="316.6" x2="207.2" y2="311.3"/>
					
						<rect x="210" y="309.6" transform="matrix(0.6034 -0.7974 0.7974 0.6034 -166.7934 292.5325)" class="st4" width="1.4" height="8.8"/>
				</g>
				<g>
					<line class="st1" x1="209.9" y1="318.4" x2="205.3" y2="315.1"/>
					
						<rect x="206.9" y="313.9" transform="matrix(0.5882 -0.8088 0.8088 0.5882 -170.6974 298.339)" class="st4" width="1.4" height="5.7"/>
				</g>
			</g>
		</g>
	</g>
	<g>
		<g>
			<g>
				<polygon class="st8" points="555.6,524.9 538.8,518.1 539.3,451.4 567.5,448.9 				"/>
				<polygon class="st8" points="576.2,535.8 537.5,534.6 538.8,518.1 577.4,533.8 				"/>
				<g>
					<g>
						<polygon class="st5" points="556.8,525.4 537.6,524 536.9,535.4 576.2,535.8 577.4,533.8 						"/>
					</g>
					<polygon class="st4" points="578.2,533.8 568.5,529.6 568.3,533.9 536.5,532.5 536.3,536.1 577.9,536.1 					"/>
					<path class="st5" d="M559.4,529.4l-4.9-1.2c0,0-0.9-8.7,1.3-8.7C558.2,519.4,559.4,529.4,559.4,529.4z"/>
				</g>
			</g>
			<path class="st7" d="M562,514.4h-28.4l12.1-222.7c0,0,19.4-30.9,55.3-29.4l0,0l-7,65.4L562,514.4z"/>
			<g>
				<g>
					<polygon class="st8" points="616.6,526.6 598.5,518.1 596.1,454.4 619.6,468.7 					"/>
					<polygon class="st8" points="635.8,535.8 597.2,534.6 598.5,518.1 637.1,533.8 					"/>
					<g>
						<g>
							<polygon class="st5" points="616.5,525.4 597.3,524 596.6,535.4 635.8,535.8 637.1,533.8 							"/>
						</g>
						<polygon class="st4" points="637.9,533.8 628.2,529.6 628,533.9 596.2,532.5 596,536.1 637.6,536.1 						"/>
						<path class="st5" d="M619.1,529.4l-4.9-1.2c0,0-0.9-8.7,1.3-8.7C617.9,519.4,619.1,529.4,619.1,529.4z"/>
					</g>
				</g>
				<path class="st7" d="M594.3,514l27.4-0.3l18.5-224.9c0,0-18.8-26.5-38.9-26.5L594,267L594.3,514z"/>
				<g>
					<polygon class="st4" points="593.6,514 593.3,327.3 605,321.8 605.6,323.1 594.7,328.2 595,514 					"/>
				</g>
			</g>
			<g>
				<path class="st4" d="M552.1,323.9c-0.8,0-1.5,0-2.3-0.1l0.2-1.4c7.4,0.9,15.2-3.1,19.1-9.9l1.2,0.7
					C566.5,319.7,559.3,323.9,552.1,323.9z"/>
			</g>
			<g>
				
					<rect x="536.2" y="507.9" transform="matrix(0.9939 -0.1102 0.1102 0.9939 -52.7283 63.4452)" class="st4" width="22.4" height="1.4"/>
			</g>
			<g>
				
					<rect x="599.8" y="507.9" transform="matrix(0.9939 -0.1102 0.1102 0.9939 -52.3407 70.4549)" class="st4" width="22.4" height="1.4"/>
			</g>
		</g>
		<g>
			<path class="st1" d="M574.6,305l40-0.2V190.3c-1.8-0.3-37.3-0.1-40,0.6V305z"/>
			<g>
				<g>
					<path class="st8" d="M594.3,201.7L594.3,201.7c4.5,0,8.2-3.7,8.2-8.2l0.3-4.8l-0.3-24.8h-16.4v29.6
						C586.1,198.1,589.8,201.7,594.3,201.7z"/>
				</g>
			</g>
			<g>
				<g>
					<g>
						<g>
							<polygon class="st1" points="607.4,211.1 590.3,215.9 597.7,191.3 607.4,186.4 							"/>
							<polygon class="st1" points="582.9,211.1 600,215.9 592.5,191.3 582.9,186.4 							"/>
						</g>
					</g>
				</g>
				<g>
					<g>
						<polygon class="st4" points="599.8,198.1 598.2,193.4 599.6,193 600.4,195.5 605.8,190.1 606.8,191.1 						"/>
					</g>
					<g>
						<polygon class="st4" points="590.5,198.1 583.5,191.1 584.5,190.1 589.9,195.5 590.7,193 592.1,193.4 						"/>
					</g>
				</g>
			</g>
			<g>
				<rect x="593.9" y="202.3" class="st4" width="1.4" height="78.5"/>
			</g>
			<g>
				<path class="st5" d="M640.8,220.1c-0.3-17.4-14.5-30.8-32.3-30.5l-1.1,0v120.7l38.3,0C645.8,310.3,640.9,234.3,640.8,220.1z"/>
				<path class="st5" d="M582.2,189.6c-17.4,0-32.7,13.3-34.8,30.5c-3.2,27.9-6.7,89.3-6.8,89.9l0,0.4l42.3,0V189.6l-0.3,0
					C582.4,189.6,582.3,189.6,582.2,189.6z"/>
			</g>
		</g>
		<g>
			<path class="st6" d="M604.6,185.5c12.1-0.1,17.5-12.4,16.6-25.4c-0.2-2.9-0.7-5.8-1.4-8.5c-3.3-11.6-11.5-19.9-24.5-17.4
				C566,139.9,574.9,185.8,604.6,185.5z"/>
			<g>
				<g>
					<path class="st4" d="M596.8,159.9c0.1,0.8,0.8,1.3,1.6,1.2c0.8-0.1,1.3-0.8,1.2-1.6c-0.1-0.8-0.8-1.3-1.6-1.2
						C597.3,158.4,596.7,159.1,596.8,159.9z"/>
				</g>
				<g>
					<path class="st4" d="M612,159.2c0.1,0.8,0.8,1.3,1.6,1.2c0.8-0.1,1.3-0.8,1.2-1.6c-0.1-0.8-0.8-1.3-1.6-1.2
						C612.4,157.7,611.8,158.4,612,159.2z"/>
				</g>
				<g>
					<path class="st4" d="M594.4,157.9l-1.3-0.6c1-2,2.8-3.4,4.7-3.7c1.2-0.2,3.1-0.1,4.9,1.7l-1,1c-1.1-1.1-2.4-1.6-3.7-1.4
						C596.6,155.1,595.2,156.2,594.4,157.9z"/>
				</g>
				<g>
					<path class="st4" d="M605.5,166.2l-0.1-1.4l4.2-0.2l-0.4-8.5l0.1-0.2c1.1-2.3,2.6-2.9,3.7-3c1.7-0.2,3.6,0.7,4.9,2.4l-1.1,0.9
						c-1-1.3-2.5-2.1-3.7-1.9c-1,0.1-1.9,0.8-2.5,2.1l0.4,9.6L605.5,166.2z"/>
				</g>
			</g>
			<g>
				<path class="st4" d="M587.5,144.3c-2.4,4.6-4.9,23.9,4.3,21.3c10.5-2.9,28.1-1.4,30.1,4c3,8.1-4,18.6-14.9,19.3
					c-39.1,2.4-31.1-35.6-27.9-43.9C582.6,135.9,595.6,129,587.5,144.3z"/>
				<path class="st6" d="M579.7,156.1l0.9,11.8c-0.1,0-0.1,0-0.2,0c-3.3-0.4-5.7-3.3-5.3-6.6C575.3,158.7,577.3,156.7,579.7,156.1z"
					/>
				<g>
					<path class="st6" d="M606.1,171.7c-0.5,0-1,0-1.5-0.1c-2.3-0.4-4.5-1.9-5.7-4l1.2-0.7c1.1,1.7,2.8,2.9,4.8,3.3
						c1.2,0.2,3,0.2,4.9-1.1l0.8,1.1C609.2,171.2,607.7,171.7,606.1,171.7z"/>
				</g>
			</g>
			<path class="st4" d="M585.5,127.9c-11.3,1.5-14.4,20.5,3,20.6c13.7,0,22.6-12,31.2,3.1C618.1,139.5,603.1,125.6,585.5,127.9z"/>
		</g>
		<g>
			<g>
				<path class="st6" d="M548.8,338.5c1-0.2,1.5-1.4,1.2-2.4c0,0,1.6,5.1,3.6,4.5c1.6-0.5,1.4-2.6,1.4-2.6s1.4,4.4,3.4,3.8
					c2-0.6,0.6-5,0.6-5c0.4,1.1,1.5,1.7,2.6,1.4c2.8-0.9-1.2-10.6-1.2-10.6s3.6,3.4,5.4,1.8c2.1-1.8-10.1-16.6-10.1-16.6
					c-0.7-0.7-14.8,2.9-15.6,3.6l3.6,12.7l0.3,1C544.1,330,546.5,338.9,548.8,338.5z"/>
				<g>
					<line class="st1" x1="559.2" y1="337.5" x2="556.2" y2="327.9"/>
					
						<rect x="557" y="327.7" transform="matrix(0.9532 -0.3023 0.3023 0.9532 -74.4746 184.1294)" class="st4" width="1.4" height="10.1"/>
				</g>
				<g>
					<line class="st1" x1="555.2" y1="338.8" x2="552.2" y2="329.2"/>
					
						<rect x="553" y="328.9" transform="matrix(0.9532 -0.3022 0.3022 0.9532 -75.0387 182.9558)" class="st4" width="1.4" height="10.1"/>
				</g>
				<g>
					<line class="st1" x1="550.2" y1="336.8" x2="548.2" y2="330.4"/>
					<polygon class="st4" points="549.5,337 547.5,330.6 548.8,330.2 550.9,336.6 					"/>
				</g>
			</g>
			<path class="st5" d="M574.1,218.1c-30.8,31.6-27.1,57.6-14.7,94.3c0.1,0.3-20.7,6.3-20.8,5.9c-2.2-6.3-38.2-69.2,23.6-121.8"/>
			<g>
				<path class="st4" d="M538.5,319c-0.5,0-0.6-0.2-0.7-0.5c-0.2-0.5-0.5-1.3-1.1-2.5c-26.8-59-1.2-97.9,24.9-120.1l0.9,1.1
					c-25.8,21.9-50.9,60.3-24.5,118.5c0.4,0.9,0.7,1.5,0.9,2.1c2.8-0.6,16.6-4.5,19.5-5.6c-11.1-33-13.8-55.7,3.4-80.4l1.2,0.8
					c-17,24.4-14.2,46.9-3,79.8c0.2,0.7-0.4,1-1.4,1.3c-2.2,0.8-7.5,2.3-11.4,3.4C541.5,318.4,539.4,319,538.5,319z"/>
			</g>
		</g>
		<g>
			<g>
				<g>
					<g>
						<polygon class="st1" points="608.2,225 595.5,278.6 560.8,280.6 560.1,286.2 671.4,286.2 685.4,225 						"/>
						<path class="st4" d="M671.9,286.9H559.3l1-6.9l34.7-2l12.7-53.6h78.6L671.9,286.9z M560.9,285.5h109.9l13.7-59.8h-75.8
							L596,279.3l-34.6,2L560.9,285.5z"/>
					</g>
					<g>
						<path class="st4" d="M640.5,259.9c-1.9,0-3.6-0.8-4.8-2.2c-1.3-1.6-1.9-3.7-1.5-6c0.7-4.4,4.6-8,8.7-8c1.9,0,3.6,0.8,4.8,2.2
							c1.3,1.6,1.9,3.7,1.5,6C648.5,256.3,644.6,259.9,640.5,259.9z M642.9,245.2c-3.4,0-6.7,3-7.3,6.8c-0.3,1.9,0.1,3.6,1.2,4.9
							c0.9,1.1,2.3,1.7,3.8,1.7c3.4,0,6.7-3,7.3-6.8c0.3-1.9-0.1-3.6-1.2-4.9C645.7,245.8,644.4,245.2,642.9,245.2z"/>
					</g>
				</g>
			</g>
			<g>
				<path class="st6" d="M665.6,279.6c0-1,1-1.8,2.1-1.7c0,0-5.4-0.5-5.2-2.6c0.2-1.7,2.3-1.9,2.3-1.9s-4.6-0.4-4.4-2.5
					c0.2-2.1,4.8-1.7,4.8-1.7c-1.2-0.1-2-1.1-1.9-2.3c0.3-2.9,9.6-1.7,12.2,0.2c4,2.9,0.8,13.4-3,15.5
					C670.9,283.5,665.7,281.9,665.6,279.6z"/>
				<g>
					
						<rect x="668.7" y="264.5" transform="matrix(8.984107e-02 -0.996 0.996 8.984107e-02 340.7847 912.006)" class="st4" width="1.4" height="10.1"/>
				</g>
				<g>
					
						<rect x="668.3" y="268.7" transform="matrix(8.983056e-02 -0.996 0.996 8.983056e-02 336.2642 915.4544)" class="st4" width="1.4" height="10.1"/>
				</g>
				<g>
					
						<rect x="669.6" y="274.7" transform="matrix(8.980460e-02 -0.996 0.996 8.980460e-02 333.1319 920.7184)" class="st4" width="1.4" height="6.7"/>
				</g>
			</g>
		</g>
	</g>
	<g>
		<g>
			<g>
				<path class="st6" d="M138.9,356c-1-0.1-1.7-1.4-1.6-2.3c0,0-0.7,5.1-2.7,4.4c-1.6-0.5-1.8-2.6-1.8-2.6s-0.6,4.4-2.6,3.7
					c-2-0.6-1.4-5-1.4-5c-0.1,1.1-1.2,1.7-2.3,1.4c-2.8-0.9-0.7-10.5-0.7-10.5s-2.9,3.4-4.9,1.8c-2.3-1.8,6.9-16.5,6.9-16.5
					c0.6-0.7,14.8,3.4,14.8,3.4S142.8,356.5,138.9,356z"/>
			</g>
			<g>
				<path class="st6" d="M137.5,342.7l-9.7-7.6c0,0-0.6-23.4-1.3-42l14.7-0.6c0,0,1.3,40.1,1.4,41.3
					C142.6,335.9,142.6,341,137.5,342.7z"/>
			</g>
			<g>
				<path class="st7" d="M146.3,319.5c-7.4-0.2-14.7-0.1-22.1-0.1c-0.1-36.2-15.9-105.2-15.9-105.2s2.1-7.1,10.6-9.3
					C140.9,222.5,145.7,281.2,146.3,319.5z"/>
			</g>
			<path class="st4" d="M156.7,350l-51.8,4.2l-4.1-51l51.8-4.2c1.4-0.1,2.6,0.9,2.7,2.3l3.7,46.1C159.1,348.7,158.1,349.9,156.7,350
				z"/>
		</g>
		<g>
			<g>
				<g>
					<polygon class="st6" points="47.2,524.9 30.5,518.1 30.9,451.4 59.1,448.9 					"/>
					<polygon class="st6" points="67.8,535.8 29.2,534.6 30.5,518.1 69.1,533.8 					"/>
					<g>
						<g>
							<polygon class="st5" points="48.4,525.4 29.2,524 28.5,535.4 67.8,535.8 69.1,533.8 							"/>
						</g>
						<polygon class="st4" points="69.8,533.8 60.2,529.6 59.9,533.9 28.2,532.5 27.9,536.1 69.5,536.1 						"/>
						<path class="st5" d="M51.1,529.4l-4.9-1.2c0,0-0.9-8.7,1.3-8.7C49.9,519.4,51.1,529.4,51.1,529.4z"/>
					</g>
				</g>
				<path class="st5" d="M53.6,514.4H25.2l12.1-222.7c0,0,19.4-30.9,55.3-29.4h0l4.4,60.9l-11.3,4.5L53.6,514.4z"/>
				<g>
					<path class="st4" d="M43.7,323.9c-0.8,0-1.5,0-2.3-0.1l0.2-1.4c7.4,0.9,15.2-3.1,19.1-9.9l1.2,0.7
						C58.2,319.7,50.9,323.9,43.7,323.9z"/>
				</g>
			</g>
			<g>
				<g>
					<polygon class="st6" points="115.5,526.6 97.1,518.1 92.5,454.4 116.4,468.7 					"/>
					<polygon class="st6" points="135.1,535.8 96.4,534.6 97.1,518.1 136.3,533.8 					"/>
					<g>
						<g>
							<polygon class="st5" points="115.3,525.4 96.1,524 95.8,535.4 135.1,535.8 136.3,533.8 							"/>
						</g>
						<polygon class="st4" points="137,533.8 127.2,529.6 127.1,533.9 95.4,532.5 95.2,536.1 136.8,536.1 						"/>
						<path class="st5" d="M118.1,529.4l-5-1.2c0,0-1.2-8.7,1-8.7C116.6,519.4,118.1,529.4,118.1,529.4z"/>
					</g>
				</g>
				<path class="st5" d="M92.8,514l27.4-0.3l10.6-224.9c0,0-19.8-26.5-39.8-26.5l-7.1,4.7L92.8,514z"/>
				<g>
					<polygon class="st4" points="54.3,514.5 53,514.3 85.3,327.2 96.8,321.8 97.4,323.1 86.6,328.2 					"/>
				</g>
			</g>
			<g>
				
					<rect x="96" y="508.3" transform="matrix(0.9906 -0.137 0.137 0.9906 -68.7176 19.6077)" class="st4" width="24.2" height="1.4"/>
			</g>
			<g>
				
					<rect x="109.7" y="422" transform="matrix(0.9232 -0.3843 0.3843 0.9232 -153.6213 76.7054)" class="st4" width="10.7" height="1.4"/>
			</g>
			<g>
				
					<rect x="27.4" y="508.3" transform="matrix(0.9906 -0.137 0.137 0.9906 -69.3628 10.2164)" class="st4" width="24.2" height="1.4"/>
			</g>
		</g>
		<g>
			<path class="st7" d="M131.8,308.6c-0.3-26.9-0.5-53.9-0.8-80.8c-0.3-16.6-13.4-29.1-29.2-28.8c-7.9,0.1-15.7,0.1-23.5,0
				c-15.8-0.3-30.1,12.2-32.1,28.8c-3,26.9-5.9,53.9-8.9,80.8H131.8z"/>
			<g>
				<path class="st4" d="M131.1,308.6l-0.8-80.8c-0.1-7.8-3.2-15-8.6-20.2c-5.3-5.2-12.4-8-19.9-7.9l0-1.4
					c7.9-0.1,15.3,2.8,20.9,8.3c5.6,5.5,8.8,13.1,9,21.2l0.8,80.8L131.1,308.6z"/>
			</g>
			<g>
				
					<rect x="68" y="299.9" transform="matrix(0.9977 -6.808140e-02 6.808140e-02 0.9977 -20.2438 7.1183)" class="st4" width="52.6" height="1.4"/>
			</g>
			<g>
				
					<rect x="48.2" y="302.7" transform="matrix(0.9977 -6.798129e-02 6.798129e-02 0.9977 -20.5038 4.2759)" class="st4" width="8.7" height="1.4"/>
			</g>
		</g>
		<g>
			<g>
				<path class="st6" d="M38.5,341.8c1.1-0.1,1.7-1.2,1.4-2.2c0,0,1.4,5,3.5,4.5c1.7-0.4,1.6-2.5,1.6-2.5s1.2,4.3,3.3,3.8
					s0.9-4.8,0.9-4.8c0.3,1.1,1.5,1.7,2.6,1.5c2.9-0.7-0.6-10.3-0.6-10.3s3.5,3.5,5.5,2c2.2-1.7-9.5-16.6-9.5-16.6
					c-0.7-0.8-15.4,2-16.3,2.7l3,12.5l0.3,1C34.1,333.3,36.1,342,38.5,341.8z"/>
				<g>
					
						<rect x="47.3" y="331.7" transform="matrix(0.9646 -0.2638 0.2638 0.9646 -87.1034 24.5947)" class="st4" width="1.4" height="9.8"/>
				</g>
				<g>
					
						<rect x="43.1" y="332.8" transform="matrix(0.9646 -0.2639 0.2639 0.9646 -87.5433 23.5346)" class="st4" width="1.4" height="9.8"/>
				</g>
				<g>
					
						<rect x="38.5" y="333.8" transform="matrix(0.9646 -0.2639 0.2639 0.9646 -87.5564 22.2935)" class="st4" width="1.4" height="6.5"/>
				</g>
			</g>
			<path class="st7" d="M71.5,226.6c-33.6,28.9-31.3,54.3-20.6,90.5c0.1,0.3-21.7,5-21.8,4.6c-1.9-6.2-35.4-69.1,31.4-116.6"/>
			<g>
				<path class="st4" d="M29.2,322.4c-0.6,0-0.7-0.2-0.8-0.5c-0.1-0.5-0.5-1.3-1-2.4c-24.2-58.6,4.3-94.9,32.6-115l0.8,1.1
					c-27.8,19.8-56,55.6-32.1,113.3c0.4,0.9,0.6,1.5,0.8,2.1c2.8-0.4,17.4-3.5,20.4-4.3c-9.6-32.6-11-54.6,8.1-77.7l1.1,0.9
					c-18.9,22.7-17.3,44.6-7.7,77c0.2,0.7-0.5,0.9-0.9,1c-1.6,0.5-7.3,1.8-11.8,2.7C32.6,321.9,30.2,322.4,29.2,322.4z"/>
			</g>
		</g>
		<g>
			<path class="st4" d="M117.6,160.5c0,3.2-2.8,5.9-3.8,8.8c-1,3-0.3,6.9-2.1,9.4c-1.8,2.5-5.7,3.1-8.2,4.9
				c-2.5,1.8-4.2,5.4-7.2,6.3c-2.9,0.9-6.4-0.9-9.6-0.9c-3.2,0-6.7,1.8-9.6,0.9c-3-1-4.7-4.5-7.2-6.3c-2.5-1.8-6.4-2.4-8.2-4.9
				c-1.8-2.5-1.2-6.4-2.1-9.4c-0.9-2.9-3.8-5.6-3.8-8.8c0-3.2,2.8-5.9,3.8-8.8c1-3,0.3-6.9,2.1-9.4c1.8-2.5,5.7-3.1,8.2-4.9
				c2.5-1.8,4.2-5.4,7.2-6.3c2.9-0.9,6.4,0.9,9.6,0.9c3.2,0,6.7-1.8,9.6-0.9c3,1,4.7,4.5,7.2,6.3c2.5,1.8,6.4,2.4,8.2,4.9
				c1.8,2.5,1.2,6.4,2.1,9.4C114.7,154.5,117.6,157.3,117.6,160.5z"/>
			<g>
				<g>
					<path class="st6" d="M88.7,204.6L88.7,204.6c3.7-0.1,6.5-3.2,6.4-6.9l0.1-3.9l-1-20l-13.2,0.5l0.9,23.9
						C82,201.9,85,204.7,88.7,204.6z"/>
					<polygon class="st4" points="97.6,196.8 77.6,184 95.4,172.1 					"/>
				</g>
				<path class="st6" d="M96.1,190.8c11.3-0.8,15.7-12.6,14.1-24.7c-2-14.7-11-26.6-25.9-22.8C57.3,150.2,68.2,192.8,96.1,190.8z"/>
				<g>
					<g>
						<path class="st4" d="M87.3,167.2c0.1,0.7,0.9,1.2,1.6,1.1c0.7-0.1,1.2-0.9,1.1-1.6c-0.1-0.7-0.9-1.2-1.6-1.1
							C87.7,165.8,87.2,166.5,87.3,167.2z"/>
					</g>
					<g>
						<path class="st4" d="M101.5,165.7c0.1,0.7,0.9,1.2,1.6,1.1c0.7-0.1,1.2-0.9,1.1-1.6s-0.9-1.2-1.6-1.1
							C101.8,164.3,101.3,165,101.5,165.7z"/>
					</g>
					<g>
						<path class="st4" d="M85,165.5l-1.3-0.5c0.8-2,2.4-3.4,4.2-3.8c1.1-0.3,2.9-0.2,4.7,1.4l-0.9,1.1c-1.1-1-2.3-1.3-3.5-1
							C86.8,162.8,85.6,164,85,165.5z"/>
					</g>
					<g>
						<path class="st4" d="M96.3,177.8c-0.3,0-0.6,0-1-0.1c-2.2-0.3-4.3-1.6-5.6-3.4l1.1-0.8c1.1,1.5,2.8,2.6,4.6,2.8
							c1.1,0.1,2.8,0,4.5-1.3l0.9,1.1C99.5,177.3,97.9,177.8,96.3,177.8z"/>
					</g>
					<g>
						<path class="st4" d="M98.7,173.4l-0.3-1.4l2.2-0.5l-2-8.7l0.1-0.2c0.7-1.7,1.9-2.8,3.3-3c1.6-0.3,3.4,0.5,4.8,2l-1,0.9
							c-1.1-1.2-2.4-1.8-3.5-1.6c-0.9,0.2-1.7,0.8-2.2,2l2.2,9.6L98.7,173.4z"/>
					</g>
				</g>
			</g>
			<path class="st4" d="M71.2,173.1l11.5-15.3c2-2.7,5.5-3.9,8.7-3.1c4.9,1.3,12,2.4,16.3,0c4.6-2.6,8.3-16.5-12.4-17.3
				C45,135.4,71.2,173.1,71.2,173.1z"/>
			<path class="st6" d="M76.8,171c-0.1,3.1-2.8,5.5-5.9,5.4c-3.1-0.1-5.5-2.8-5.4-5.9c0.1-3.1,2.8-5.5,5.9-5.4
				C74.6,165.3,77,167.9,76.8,171z"/>
			<g>
				<polygon class="st4" points="71,173.4 70,172.4 71.4,171 69.6,170 70.2,168.7 73.7,170.6 				"/>
			</g>
		</g>
		<g>
			<g>
				<g>
					<g>
						<polygon class="st7" points="102.3,216 85.2,220.8 92.6,196.2 102.3,191.3 						"/>
						<polygon class="st7" points="77.7,216 94.8,220.8 87.4,196.2 77.7,191.3 						"/>
					</g>
				</g>
			</g>
			<g>
				<g>
					<polygon class="st4" points="94.6,203 93.1,198.4 94.4,197.9 95.3,200.4 100.7,195.1 101.7,196.1 					"/>
				</g>
				<g>
					<polygon class="st4" points="85.4,203 78.4,196.1 79.4,195.1 84.8,200.4 85.6,197.9 87,198.4 					"/>
				</g>
			</g>
		</g>
	</g>
</g>
</svg>
