<?xml version="1.0" encoding="utf-8"?>
<!-- Generator: Adobe Illustrator 22.0.0, SVG Export Plug-In . SVG Version: 6.00 Build 0)  -->
<svg version="1.1" id="Layer_1" xmlns="http://www.w3.org/2000/svg" xmlns:xlink="http://www.w3.org/1999/xlink" x="0px" y="0px"
	 viewBox="0 0 300 300" style="enable-background:new 0 0 300 300;" xml:space="preserve">
<style type="text/css">
	.st0{fill-rule:evenodd;clip-rule:evenodd;fill:url(#SVGID_1_);}
	.st1{fill-rule:evenodd;clip-rule:evenodd;fill:#FFFFFF;}
</style>
<linearGradient id="SVGID_1_" gradientUnits="userSpaceOnUse" x1="5.984475e-10" y1="150" x2="300" y2="150">
	<stop  offset="0" style="stop-color:#29ABE2"/>
	<stop  offset="1" style="stop-color:#4D4D4D"/>
</linearGradient>
<path class="st0" d="M288,300H12c-6.6,0-12-5.4-12-12L0,12C0,5.4,5.4,0,12,0l276,0c6.6,0,12,5.4,12,12v276
	C300,294.6,294.6,300,288,300z"/>
<g id="symbol_2_">
	<path class="st1" d="M217.3,236.8h12l-0.3-173.7l-85.2,66.3L58.8,63.2v49.3c-1.6,1.7-2.6,4-2.6,6.6c0,5,3.8,9.1,8.5,9.1
		s8.5-4.1,8.5-9.1c0-2.6-1-4.9-2.6-6.6V85.4l73.3,58v0.2l0.1-0.1l0.1,0.1v-0.2l73.3-58l0,129.8L81.3,109.9v126.9H116v-52.5
		c1.4-1.6,2.3-3.8,2.3-6.2c0-5-3.8-9.1-8.5-9.1c-4.7,0-8.5,4.1-8.5,9.1c0,2.4,0.9,4.6,2.3,6.2v43.3H93.2l0.2-88.6L217.3,236.8z"/>
	<path class="st1" d="M72.6,178.1c0-5-3.8-9.1-8.5-9.1c-4.7,0-8.5,4.1-8.5,9.1c0,2.6,1,4.9,2.6,6.6v36.5c-1.6,1.7-2.6,4-2.6,6.6
		c0,5,3.8,9.1,8.5,9.1c4.7,0,8.5-4.1,8.5-9.1c0-2.6-1-4.9-2.6-6.6v-36.5C71.6,183,72.6,180.7,72.6,178.1z"/>
	<path class="st1" d="M189.2,174.8c0,5,3.8,9.1,8.5,9.1c4.7,0,8.5-4.1,8.5-9.1c0-2.6-1-4.9-2.6-6.6v-36.5c1.6-1.7,2.6-4,2.6-6.6
		c0-5-3.8-9.1-8.5-9.1c-4.7,0-8.5,4.1-8.5,9.1c0,2.6,1,4.9,2.6,6.6v36.5C190.2,169.9,189.2,172.2,189.2,174.8z"/>
</g>
</svg>
