<?xml version="1.0" encoding="utf-8"?>
<!-- Generator: Adobe Illustrator 22.0.0, SVG Export Plug-In . SVG Version: 6.00 Build 0)  -->
<svg version="1.1" xmlns="http://www.w3.org/2000/svg" xmlns:xlink="http://www.w3.org/1999/xlink" x="0px" y="0px"
	 viewBox="0 0 600 600" style="enable-background:new 0 0 600 600;" xml:space="preserve">
<style type="text/css">
	.st0{fill:#354D3C;}
	.st1{fill:#D1A87C;}
	.st2{fill:#E5E5E5;}
</style>
<g id="base">
</g>
<g id="comprehensive">
</g>
<g id="banner_x5F_onLight">
</g>
<g id="banner_x5F_onDark">
	<rect class="st0" width="600" height="600"/>
	<path class="st1" d="M124.4,324.6c0,0.1,0.1,0.2,0.2,0.2c0.1,0,0.3,0,0.3-0.2l0-0.1H124.4z M151.9,324.6h-0.5l0.1,0.4
		c0,0.1,0.1,0.2,0.2,0.2c0,0,0.1,0,0.1,0c0.1,0,0.2-0.2,0.2-0.3L151.9,324.6z M142.3,324.6h-0.5l0,0.2c0,0.1,0.1,0.2,0.2,0.2h0
		c0.1,0,0.2-0.1,0.2-0.3L142.3,324.6z M153,324.6h-29.7c-0.6,0-1.1,0.6-0.9,1.2c0.6,1.6,2,4,5.2,4h20.9c3.3,0,4.7-2.5,5.2-4
		C154.1,325.2,153.7,324.6,153,324.6z M178.7,242.4v112.8h1.2V243C179.9,243,179.7,242.4,178.7,242.4z"/>
	<path class="st1" d="M174.9,272.3c-1.9,0.2-6.4,0.1-15.4-2.3c-12.6-3.4-25.4-1.5-26.3,5.7c-0.4,2.9,1.9,4.4,4.4,4.5l-13.1,44.3
		c0,0,0,0,0,0.1h0.5l13.1-44.4h0.1l3.8,44.4h0.5l-3.7-43.4l12.8,43.4h0.5l-13.1-44.4c0,0,0,0,0,0c1.5-0.2,2.9-1,3.5-2.2
		c-0.2,0.2-1.5,1.4-3.8,1.3c0,0,0,0,0,0l-0.1-0.5v0c0-0.1-0.1-0.1-0.1-0.2c0,0-0.1-0.1-0.1-0.1c0,0,0,0,0,0c-0.1,0-0.1,0-0.1,0.1
		c0,0-0.1,0.1-0.1,0.1c0,0,0,0.1,0,0.1l-0.1,0.4h0c-0.3,0-0.6-0.1-1-0.2c-3.1-0.9-1.6-5,1.7-6.3c4.2-1.6,8.5-1.2,16.1,1.1
		c5.2,1.6,11.9,5.9,20.5,4.6c0.1,14,0,54.6-1.6,60.2c-0.2,0.2-2.5-0.3-4.3,1.5c-1.5,1.4-0.9,4.8-1.6,5.4c-1.5,1.2-5.3,1.3-8.6,2
		c-7.2,1.6-10.2,7.7-10.2,7.7h27.8V243.4C174.8,247.9,174.8,266.7,174.9,272.3z M172,275.4c0,0.7-0.6,1.2-1.3,1.2
		c-1.1,0-2.9-0.2-5.1-0.8c-4.5-1.2-9-4.4-16.2-5.5c0,0,5.5-0.3,11.6,1.8c4.2,1.4,8,1.8,9.8,2C171.5,274.1,172.1,274.7,172,275.4
		L172,275.4z"/>
	<path class="st2" d="M226.2,325.6l-4.6,21.7h-36.3c-0.3-13.3-0.3-26.6-0.3-37.8v-11c0-13.5,0-27.2,0.3-40.8l14.7-1.7v-6.3h-18.1
		v105.4h52.2l1.6-29.6H226.2z M276,257.8l14.7-1.7v-6.3h-44.1v6.3l14.7,1.7c0.3,13.6,0.3,27.2,0.3,40.8v7.9c0,13.8,0,27.4-0.3,40.8
		l-14.7,1.7v6.3h44.1v-6.3l-14.7-1.7c-0.3-13.6-0.3-27.2-0.3-40.8v-7.9C275.7,284.8,275.7,271.2,276,257.8z M342.9,295.8l-6.1-2.4
		c-11.5-4.4-17.9-10.2-17.9-20.1c0-11.8,9.3-17.9,21.5-17.9c4.9,0,8.9,0.9,12.9,3.2l3.3,17.7h9.4l0.9-20.5c-6.8-5-15.1-8.3-25.6-8.3
		c-20,0-35.2,11-35.2,29.1c0,16.1,11,25.2,27.1,31.5l6,2.4c13.7,5.3,19.8,9.9,19.8,20.1c0,12.3-9.9,19.2-24.9,19.2
		c-6.9,0-11.5-1.3-16.6-4.1l-3.1-18.4H305l-1,22c7.3,4.6,18.7,8.3,30.5,8.3c21.5,0,37.1-11.3,37.1-29.9
		C371.7,312.9,363.7,303.8,342.9,295.8z M465.5,347.5L431.9,249h-9.4l-33.7,97.9l-13.2,2v6.3h36.2v-6.3l-15.6-2.1l8.9-26.1H442
		l8.8,26.3l-15.7,1.9v6.3h42.5v-6.3L465.5,347.5z M407.6,313.5l16.1-47.2l15.9,47.2H407.6z"/>
</g>
</svg>
