<?xml version="1.0" encoding="utf-8"?>
<!-- Generator: Adobe Illustrator 22.0.0, SVG Export Plug-In . SVG Version: 6.00 Build 0)  -->
<svg version="1.1" id="icon" xmlns="http://www.w3.org/2000/svg" xmlns:xlink="http://www.w3.org/1999/xlink" x="0px" y="0px"
	 viewBox="0 0 600 600" style="enable-background:new 0 0 600 600;" xml:space="preserve">
<style type="text/css">
	.st0{fill:#2C2C2C;}
	.st1{fill:#F44C00;}
	.st2{fill:#FFFFFF;fill-opacity:0.5;}
	.st3{fill:#FFFFFF;fill-opacity:0.2;}
</style>
<path class="st0" d="M64.2,0h471.6C571.3,0,600,28.7,600,64v472c0,35.3-28.7,64-64.2,64H64.2C28.7,600,0,571.3,0,536V64
	C0,28.7,28.7,0,64.2,0z"/>
<path class="st1" d="M91.5,320.8l1-146.8c0.2-26.6,20-49.3,47.4-54.4L291,91.5c36.3-6.8,70,19.9,69.8,55.2l-1,146.8
	c-0.2,26.6-20,49.3-47.4,54.4L161.3,376C125,382.7,91.3,356.1,91.5,320.8z"/>
<path class="st2" d="M165.5,386.9l1-147.2c0.2-26.6,20-49.5,47.4-54.6l151.1-28.2c36.3-6.8,70,20,69.8,55.3l-1,147.2
	c-0.2,26.6-20,49.5-47.4,54.6l-151.1,28.2C199,449,165.3,422.2,165.5,386.9z"/>
<path class="st3" d="M239.5,453.3l1-146.8c0.2-26.6,20-49.3,47.4-54.4L439.1,224c36.3-6.8,70,19.9,69.8,55.2l-1,146.8
	c-0.2,26.6-20,49.3-47.4,54.4l-151.1,28.1C273,515.2,239.3,488.6,239.5,453.3z"/>
</svg>
