<?xml version="1.0" encoding="utf-8"?>
<!-- Generator: Adobe Illustrator 22.0.0, SVG Export Plug-In . SVG Version: 6.00 Build 0)  -->
<svg version="1.1" xmlns="http://www.w3.org/2000/svg" xmlns:xlink="http://www.w3.org/1999/xlink" x="0px" y="0px"
	 viewBox="0 0 600 600" style="enable-background:new 0 0 600 600;" xml:space="preserve">
<style type="text/css">
	.st0{fill:#2C2C2C;}
	.st1{fill:#FFFFFF;}
	.st2{fill:#FFAC86;}
	.st3{fill:#F44C00;}
	.st4{fill:#FFFFFF;fill-opacity:0.5;}
	.st5{fill:#FFFFFF;fill-opacity:0.2;}
</style>
<g id="onDark">
	<rect x="0" y="0" class="st0" width="600" height="600"/>
	<path class="st1" d="M278.3,267.5v3.8h-15.5v-3.8H278.3z M267.5,296.4v-32.9c0-1.7,0.4-3,1.2-4.1c0.8-1.1,1.8-1.9,3-2.5
		c1.2-0.6,2.5-0.8,3.9-0.8c1.1,0,2,0.1,2.7,0.3c0.7,0.2,1.2,0.3,1.5,0.5l-1.3,3.8c-0.2-0.1-0.5-0.2-0.9-0.3
		c-0.4-0.1-0.9-0.2-1.5-0.2c-1.5,0-2.5,0.4-3.2,1.1c-0.6,0.7-1,1.8-1,3.3v31.8H267.5z"/>
	<path class="st1" d="M302.6,284.6v-17.1h4.4v28.9h-4.4v-4.9h-0.3c-0.7,1.5-1.7,2.7-3.1,3.7c-1.4,1-3.2,1.5-5.4,1.5
		c-1.8,0-3.4-0.4-4.8-1.2c-1.4-0.8-2.5-2-3.3-3.6c-0.8-1.6-1.2-3.7-1.2-6.1v-18.4h4.4v18.1c0,2.1,0.6,3.8,1.8,5
		c1.2,1.3,2.7,1.9,4.5,1.9c1.1,0,2.2-0.3,3.3-0.8c1.1-0.6,2.1-1.4,2.9-2.6C302.2,287.9,302.6,286.4,302.6,284.6z"/>
	<path class="st1" d="M319.4,257.9v38.5H315v-38.5H319.4z"/>
	<path class="st1" d="M331.9,257.9v38.5h-4.4v-38.5H331.9z"/>
	<path class="st2" d="M284.1,326.6c-0.1-1.5-0.8-2.6-1.9-3.4c-1.1-0.8-2.6-1.2-4.5-1.2c-1.3,0-2.4,0.2-3.2,0.5
		c-0.9,0.4-1.6,0.8-2,1.5c-0.5,0.6-0.7,1.3-0.7,2.1c0,0.7,0.1,1.2,0.4,1.7c0.3,0.5,0.7,0.9,1.3,1.3c0.5,0.4,1.2,0.7,1.9,0.9
		c0.7,0.3,1.5,0.5,2.3,0.7l3.3,0.8c1.6,0.4,3.1,0.8,4.4,1.5c1.3,0.6,2.5,1.4,3.5,2.2c1,0.9,1.8,1.9,2.3,3.1c0.6,1.2,0.8,2.6,0.8,4.1
		c0,2.3-0.6,4.3-1.7,5.9c-1.1,1.7-2.8,3-4.9,3.9c-2.1,0.9-4.7,1.4-7.7,1.4c-3,0-5.6-0.5-7.8-1.4c-2.2-0.9-3.9-2.3-5.2-4.1
		c-1.2-1.8-1.9-4.1-1.9-6.7h7.6c0.1,1.2,0.4,2.3,1.1,3.1c0.6,0.8,1.5,1.4,2.5,1.9c1.1,0.4,2.3,0.6,3.6,0.6c1.3,0,2.5-0.2,3.4-0.6
		c1-0.4,1.8-0.9,2.3-1.6c0.5-0.7,0.8-1.5,0.8-2.4c0-0.8-0.2-1.5-0.7-2.1c-0.5-0.6-1.2-1.1-2.1-1.5c-0.9-0.4-2.1-0.8-3.4-1.1l-4-1
		c-3.1-0.8-5.6-2-7.4-3.6c-1.8-1.6-2.7-3.8-2.7-6.6c0-2.3,0.6-4.2,1.8-5.9c1.2-1.7,2.9-3,5-3.9c2.1-0.9,4.5-1.4,7.2-1.4
		c2.7,0,5.1,0.5,7.2,1.4c2.1,0.9,3.7,2.3,4.8,3.9c1.1,1.7,1.7,3.6,1.8,5.9H284.1z"/>
	<path class="st2" d="M295.9,322.4v-6.5h30.3v6.5h-11.3v30.8h-7.7v-30.8H295.9z"/>
	<path class="st2" d="M333.1,353.1h-8.4l12.8-37.3h10.1l12.7,37.3h-8.4l-9.3-28.7h-0.3L333.1,353.1z"/>
	<path class="st2" d="M395.6,328.9h-7.9c-0.1-1-0.4-1.9-0.9-2.7c-0.4-0.8-1-1.5-1.7-2.1c-0.7-0.6-1.5-1-2.4-1.3
		c-0.9-0.3-1.9-0.5-2.9-0.5c-1.9,0-3.6,0.5-5,1.4c-1.4,0.9-2.5,2.3-3.3,4.1c-0.8,1.8-1.2,4-1.2,6.6c0,2.7,0.4,4.9,1.2,6.7
		c0.8,1.8,1.9,3.2,3.3,4.1c1.4,0.9,3.1,1.4,4.9,1.4c1,0,2-0.1,2.9-0.4c0.9-0.3,1.7-0.7,2.4-1.2c0.7-0.5,1.3-1.2,1.7-2
		c0.5-0.8,0.8-1.7,1-2.7l7.9,0c-0.2,1.7-0.7,3.4-1.5,4.9c-0.8,1.6-1.9,3-3.3,4.2c-1.4,1.2-3,2.2-4.9,2.9c-1.9,0.7-4,1.1-6.4,1.1
		c-3.3,0-6.2-0.8-8.8-2.3c-2.6-1.5-4.6-3.7-6.1-6.5c-1.5-2.8-2.2-6.3-2.2-10.4c0-4.1,0.8-7.5,2.3-10.4c1.5-2.8,3.6-5,6.2-6.5
		c2.6-1.5,5.5-2.3,8.8-2.3c2.1,0,4.1,0.3,6,0.9c1.8,0.6,3.5,1.5,4.9,2.7c1.4,1.2,2.6,2.6,3.5,4.2
		C394.8,324.8,395.3,326.7,395.6,328.9z"/>
	<path class="st2" d="M401.2,353.1v-37.3h7.8v16.4h0.5l13.3-16.4h9.4l-13.7,16.7l13.9,20.6H423l-10.1-15.3l-3.8,4.7v10.6H401.2z"/>
	<path class="st2" d="M436.2,353.1v-37.3h24.9v6.5H444v8.9h15.8v6.5H444v8.9h17.2v6.5H436.2z"/>
	<path class="st2" d="M480.4,353.1h-13.1v-37.3h13.2c3.7,0,6.9,0.7,9.6,2.2c2.7,1.5,4.7,3.6,6.2,6.4c1.5,2.8,2.2,6.1,2.2,10
		c0,3.9-0.7,7.2-2.2,10c-1.4,2.8-3.5,4.9-6.2,6.4C487.4,352.4,484.2,353.1,480.4,353.1z M475.2,346.4h5c2.3,0,4.3-0.4,5.8-1.2
		c1.6-0.8,2.8-2.1,3.6-3.9c0.8-1.8,1.2-4,1.2-6.8c0-2.8-0.4-5-1.2-6.7c-0.8-1.7-2-3-3.6-3.9c-1.6-0.8-3.5-1.2-5.8-1.2h-5V346.4z"/>
	<path class="st3" d="M101.5,306.1l0.3-43.2c0.1-7.8,5.9-14.5,13.9-16l44.5-8.3c10.7-2,20.6,5.9,20.6,16.2l-0.3,43.2
		c-0.1,7.8-5.9,14.5-13.9,16l-44.5,8.3C111.3,324.4,101.4,316.5,101.5,306.1z"/>
	<path class="st4" d="M123.3,325.6l0.3-43.4c0.1-7.8,5.9-14.6,13.9-16.1l44.5-8.3c10.7-2,20.6,5.9,20.6,16.3l-0.3,43.4
		c-0.1,7.8-5.9,14.6-13.9,16.1l-44.5,8.3C133.1,343.9,123.2,336,123.3,325.6z"/>
	<path class="st5" d="M145.1,345.2l0.3-43.2c0.1-7.8,5.9-14.5,13.9-16l44.5-8.3c10.7-2,20.6,5.9,20.6,16.2l-0.3,43.2
		c-0.1,7.8-5.9,14.5-13.9,16l-44.5,8.3C154.9,363.4,145,355.5,145.1,345.2z"/>
</g>
<g id="onLight">
</g>
<g id="icon">
</g>
</svg>
