<?xml version="1.0" encoding="utf-8"?>
<!-- Generator: Adobe Illustrator 22.0.0, SVG Export Plug-In . SVG Version: 6.00 Build 0)  -->
<svg version="1.1" id="logo" xmlns="http://www.w3.org/2000/svg" xmlns:xlink="http://www.w3.org/1999/xlink" x="0px" y="0px"
	 viewBox="0 0 235.7 100.8" style="enable-background:new 0 0 235.7 100.8;" xml:space="preserve">
<style type="text/css">
	.st0{fill:#354D3C;}
	.st1{fill:#AB8044;}
</style>
<path id="typography" class="st0" d="M74.5,68.6l-2.6,12.2H51.5c-0.2-7.5-0.2-15-0.2-21.3v-6.2c0-7.6,0-15.3,0.2-23l8.3-1v-3.5H49.5
	v59.3h29.4l0.9-16.6C79.8,68.5,74.5,68.6,74.5,68.6z M102.6,30.4l8.3-1v-3.5H86v3.5l8.3,1c0.2,7.6,0.2,15.3,0.2,23v4.3
	c0,7.8,0,15.4-0.2,23l-8.3,1v3.5h24.8v-3.5l-8.3-1c-0.2-7.6-0.2-15.3-0.2-23v-4.4C102.4,45.6,102.4,37.9,102.6,30.4z M140.2,51.7
	l-3.5-1.3c-6.5-2.5-10.1-5.8-10.1-11.3c0-6.6,5.2-10.1,12.1-10.1c2.8,0,5,0.5,7.3,1.8l1.9,10h5.3l0.5-11.5
	c-3.8-2.8-8.5-4.7-14.4-4.7c-11.3,0-19.8,6.2-19.8,16.4c0,9,6.2,14.2,15.2,17.7l3.4,1.3c7.7,3,11.2,5.6,11.2,11.3
	c0,6.9-5.6,10.8-14,10.8c-3.9,0-6.5-0.7-9.3-2.3l-1.8-10.4h-5.3l-0.5,12.4c4.1,2.6,10.5,4.7,17.2,4.7c12.1,0,20.9-6.4,20.9-16.8
	C156.5,61.4,151.9,56.2,140.2,51.7L140.2,51.7z M209.3,80.8l-18.9-55.4h-5.3l-19,55.1l-7.5,1.1v3.5H179v-3.4l-8.8-1.2l5-14.7H196
	l5,14.8l-8.8,1.1v3.5h23.9v-3.5L209.3,80.8z M176.7,61.7l9.1-26.6l8.9,26.6H176.7z"/>
<path id="scales2" class="st1" d="M47.8,21.7v63.5h0.7V22C48.5,22,48.3,21.7,47.8,21.7z"/>
<path id="scales1" class="st1" d="M45.6,38.5c-1.1,0.1-3.6,0.1-8.7-1.3c-7.1-1.9-14.3-0.8-14.8,3.2c-0.2,1.6,1.1,2.5,2.5,2.6
	l-7.4,25h-0.6c-0.3,0-0.6,0.4-0.5,0.7c0.3,0.9,1.1,2.3,3,2.3h11.8c1.8,0,2.6-1.4,3-2.3c0-0.4-0.2-0.7-0.6-0.7h-0.6l-7.4-25
	c0.9-0.1,1.7-0.5,2-1.2c-0.1,0.1-0.8,0.8-2.1,0.7l-0.1-0.3c0,0,0-0.1-0.1-0.1h-0.2v0.2l-0.1,0.2c-0.2,0-0.4-0.1-0.5-0.1
	c-1.7-0.5-0.9-2.8,0.9-3.5c2.4-0.9,4.8-0.7,9,0.6c3,0.9,6.7,3.3,11.5,2.6c0.1,7.9,0,30.7-0.9,33.9c-0.1,0.1-1.4-0.2-2.4,0.8
	c-0.8,0.8-0.5,2.7-0.9,3c-0.8,0.7-3,0.7-4.8,1.1c-4,0.9-5.7,4.4-5.7,4.4h15.7v-63C45.5,24.8,45.6,35.4,45.6,38.5z M32.4,68h-5.1
	l-2.1-24.4C25.2,43.6,32.4,68,32.4,68z M24.9,43L27,68h-9.5L24.9,43z M43.3,41c-0.6,0-1.6-0.1-2.9-0.4c-2.6-0.7-5.1-2.5-9.1-3.1
	c0,0,3.1-0.2,6.5,1c2.3,0.8,4.5,1,5.5,1.1c0.4-0.1,0.7,0.3,0.7,0.7S43.7,41,43.3,41z"/>
</svg>
