<?xml version="1.0" encoding="utf-8"?>
<!-- Generator: Adobe Illustrator 22.0.0, SVG Export Plug-In . SVG Version: 6.00 Build 0)  -->
<svg version="1.1" xmlns="http://www.w3.org/2000/svg" xmlns:xlink="http://www.w3.org/1999/xlink" x="0px" y="0px"
	 viewBox="0 0 1580.5 600" style="enable-background:new 0 0 1580.5 600;" xml:space="preserve">
<style type="text/css">
	.st0{display:none;fill:#2C2C2C;}
	.st1{fill:#FFFFFF;}
	.st2{fill:#FFAC86;}
	.st3{fill:#F44C00;}
	.st4{fill:#FFFFFF;fill-opacity:0.5;}
	.st5{fill:#FFFFFF;fill-opacity:0.2;}
</style>
<g id="logo_x5F_onDark">
	<rect y="0" class="st0" width="1580.3" height="600"/>
	<path class="st1" d="M704.7,202.9v11.2h-46.2v-11.2H704.7z M672.3,289.2v-98.2c0-4.9,1.2-9.1,3.5-12.4c2.3-3.3,5.3-5.8,9-7.4
		c3.7-1.6,7.6-2.5,11.7-2.5c3.2,0,5.9,0.3,7.9,0.8c2,0.5,3.6,1,4.6,1.5l-3.8,11.5c-0.7-0.2-1.6-0.5-2.8-0.8
		c-1.2-0.3-2.7-0.5-4.6-0.5c-4.4,0-7.5,1.1-9.4,3.3c-1.9,2.2-2.8,5.5-2.8,9.7v95.1H672.3z"/>
	<path class="st1" d="M777.2,253.9v-51h13.2v86.3h-13.2v-14.6h-0.9c-2,4.4-5.1,8.1-9.4,11.2c-4.2,3-9.6,4.6-16.1,4.6
		c-5.4,0-10.1-1.2-14.3-3.5c-4.2-2.4-7.4-6-9.8-10.8c-2.4-4.8-3.6-10.9-3.6-18.3v-54.9h13.2v54c0,6.3,1.7,11.3,5.2,15.1
		c3.5,3.7,8,5.6,13.5,5.6c3.3,0,6.6-0.8,10-2.5c3.4-1.7,6.3-4.3,8.6-7.8C776.1,263.7,777.2,259.3,777.2,253.9z"/>
	<path class="st1" d="M827.7,174.1v115.1h-13.2V174.1H827.7z"/>
	<path class="st1" d="M865,174.1v115.1h-13.2V174.1H865z"/>
	<path class="st2" d="M722,379.4c-0.4-4.4-2.3-7.8-5.6-10.2c-3.3-2.4-7.7-3.6-13.3-3.6c-3.8,0-7,0.5-9.7,1.6c-2.6,1.1-4.6,2.5-6,4.4
		c-1.4,1.9-2,4-2,6.4c-0.1,2,0.3,3.7,1.2,5.2c0.9,1.5,2.2,2.8,3.8,3.9c1.6,1.1,3.5,2,5.6,2.8c2.1,0.8,4.4,1.4,6.8,2l9.9,2.4
		c4.8,1.1,9.2,2.5,13.3,4.3c4,1.8,7.5,4,10.5,6.7c2.9,2.6,5.2,5.8,6.8,9.3c1.7,3.6,2.5,7.7,2.5,12.3c0,6.8-1.8,12.7-5.2,17.7
		c-3.4,5-8.3,8.8-14.7,11.6c-6.4,2.7-14,4.1-23,4.1c-8.9,0-16.7-1.4-23.3-4.1c-6.6-2.8-11.7-6.8-15.4-12.2
		c-3.7-5.4-5.6-12.2-5.8-20.2h22.6c0.3,3.7,1.3,6.8,3.2,9.3c1.9,2.5,4.4,4.3,7.6,5.6c3.2,1.2,6.8,1.8,10.8,1.8c4,0,7.4-0.6,10.3-1.7
		c2.9-1.2,5.2-2.8,6.8-4.8c1.6-2.1,2.4-4.4,2.4-7.1c0-2.5-0.7-4.6-2.2-6.3c-1.4-1.7-3.6-3.2-6.4-4.3c-2.8-1.2-6.2-2.3-10.2-3.3
		l-12-3c-9.3-2.3-16.7-5.9-22.1-10.7c-5.4-4.9-8.1-11.4-8-19.6c0-6.7,1.7-12.6,5.3-17.7c3.6-5,8.6-9,14.9-11.8
		c6.3-2.8,13.5-4.2,21.6-4.2c8.2,0,15.3,1.4,21.5,4.2c6.1,2.8,10.9,6.8,14.3,11.8c3.4,5,5.2,10.9,5.3,17.5H722z"/>
	<path class="st2" d="M757.3,366.8v-19.4H848v19.4h-33.8v91.9h-23.1v-91.9H757.3z"/>
	<path class="st2" d="M868.5,458.7h-25l38.1-111.3h30.1l38.1,111.3h-25l-27.7-85.9h-0.9L868.5,458.7z"/>
	<path class="st2" d="M1055.3,386.4h-23.6c-0.4-3.1-1.3-5.8-2.6-8.2c-1.3-2.4-3-4.5-5.1-6.2c-2.1-1.7-4.5-3-7.2-3.9
		c-2.7-0.9-5.6-1.4-8.8-1.4c-5.7,0-10.7,1.4-14.9,4.3c-4.2,2.8-7.5,7-9.9,12.4c-2.3,5.4-3.5,12-3.5,19.7c0,7.9,1.2,14.6,3.5,20
		c2.4,5.4,5.7,9.5,9.9,12.2c4.2,2.8,9.1,4.1,14.7,4.1c3.1,0,6-0.4,8.7-1.2c2.7-0.8,5.1-2,7.2-3.6c2.1-1.6,3.8-3.6,5.2-5.9
		c1.4-2.3,2.4-5,2.9-7.9l23.6,0.1c-0.6,5.1-2.1,10-4.6,14.8c-2.4,4.7-5.7,8.9-9.8,12.7c-4.1,3.7-8.9,6.6-14.6,8.8
		c-5.6,2.1-12,3.2-19,3.2c-9.8,0-18.7-2.2-26.4-6.7c-7.7-4.5-13.8-11-18.3-19.5c-4.5-8.5-6.7-18.8-6.7-30.9c0-12.1,2.3-22.5,6.8-31
		c4.5-8.5,10.7-15,18.4-19.5c7.8-4.5,16.5-6.7,26.2-6.7c6.4,0,12.3,0.9,17.8,2.7c5.5,1.8,10.4,4.5,14.6,7.9
		c4.2,3.4,7.7,7.7,10.4,12.7C1052.8,374.2,1054.5,379.9,1055.3,386.4z"/>
	<path class="st2" d="M1072,458.7V347.4h23.3v49.1h1.5l39.7-49.1h28l-41,49.8l41.5,61.5h-27.9l-30.2-45.8l-11.5,14.1v31.6H1072z"/>
	<path class="st2" d="M1176.7,458.7V347.4h74.4v19.4H1200v26.5h47.2v19.4H1200v26.6h51.3v19.4H1176.7z"/>
	<path class="st2" d="M1308.8,458.7h-39.1V347.4h39.5c11.1,0,20.7,2.2,28.7,6.7c8,4.4,14.2,10.8,18.5,19.1
		c4.3,8.3,6.5,18.2,6.5,29.8c0,11.6-2.2,21.6-6.5,29.9c-4.3,8.3-10.5,14.7-18.6,19.2C1329.7,456.5,1320,458.7,1308.8,458.7z
		 M1293,438.6h14.8c6.9,0,12.7-1.2,17.4-3.7c4.7-2.5,8.3-6.4,10.7-11.6c2.4-5.3,3.6-12,3.6-20.3c0-8.2-1.2-14.9-3.6-20.2
		c-2.4-5.2-5.9-9.1-10.6-11.5c-4.7-2.5-10.5-3.7-17.4-3.7H1293V438.6z"/>
	<path class="st3" d="M176.4,318.3l0.9-129.2c0.2-23.4,17.6-43.4,41.7-47.9l133-24.7c32-5.9,61.6,17.5,61.4,48.6l-0.9,129.2
		c-0.2,23.4-17.6,43.4-41.7,47.9l-133,24.7C205.8,372.8,176.2,349.3,176.4,318.3z"/>
	<path class="st4" d="M241.5,376.5l0.9-129.6c0.2-23.5,17.6-43.6,41.7-48l133-24.8c32-6,61.6,17.6,61.4,48.7l-0.9,129.6
		c-0.2,23.5-17.6,43.6-41.7,48l-133,24.8C271,431.1,241.3,407.6,241.5,376.5z"/>
	<path class="st5" d="M306.7,434.9l0.9-129.2c0.2-23.4,17.6-43.4,41.7-47.9l133-24.7c32-5.9,61.6,17.5,61.4,48.6l-0.9,129.2
		c-0.2,23.4-17.6,43.4-41.7,47.9l-133,24.7C336.1,489.4,306.5,466,306.7,434.9z"/>
</g>
<g id="logo_x5F_onLight">
</g>
<g id="icon">
</g>
</svg>
