<?xml version="1.0" encoding="utf-8"?>
<!-- Generator: Adobe Illustrator 22.0.0, SVG Export Plug-In . SVG Version: 6.00 Build 0)  -->
<svg version="1.1" xmlns="http://www.w3.org/2000/svg" xmlns:xlink="http://www.w3.org/1999/xlink" x="0px" y="0px"
	 viewBox="0 0 1760 600" style="enable-background:new 0 0 1760 600;" xml:space="preserve">
<style type="text/css">
	.st0{fill:#2C2C2C;}
	.st1{fill:#F44C00;}
	.st2{fill:#FFFFFF;fill-opacity:0.5;}
	.st3{fill:#FFFFFF;fill-opacity:0.2;}
</style>
<g id="logo_x5F_onDark">
</g>
<g id="logo_x5F_onLight">
	<path class="st0" d="M64.2,0h471.6C571.3,0,600,28.7,600,64v472c0,35.3-28.7,64-64.2,64H64.2C28.7,600,0,571.3,0,536V64
		C0,28.7,28.7,0,64.2,0z"/>
	<path class="st1" d="M91.5,320.8l1-146.8c0.2-26.6,20-49.3,47.4-54.4L291,91.5c36.3-6.8,70,19.9,69.8,55.2l-1,146.8
		c-0.2,26.6-20,49.3-47.4,54.4L161.3,376C125,382.7,91.3,356.1,91.5,320.8z"/>
	<path class="st2" d="M165.5,386.9l1-147.2c0.2-26.6,20-49.5,47.4-54.6l151.1-28.2c36.3-6.8,70,20,69.8,55.3l-1,147.2
		c-0.2,26.6-20,49.5-47.4,54.6l-151.1,28.2C199,449,165.3,422.2,165.5,386.9z"/>
	<path class="st3" d="M239.5,453.3l1-146.8c0.2-26.6,20-49.3,47.4-54.4L439.1,224c36.3-6.8,70,19.9,69.8,55.2l-1,146.8
		c-0.2,26.6-20,49.3-47.4,54.4l-151.1,28.1C273,515.2,239.3,488.6,239.5,453.3z"/>
	<path class="st0" d="M763.9,121.8v15h-61.7v-15H763.9z M720.7,237.1V105.9c0-6.6,1.5-12.1,4.6-16.5c3.1-4.4,7.1-7.7,12-9.9
		c4.9-2.2,10.1-3.3,15.6-3.3c4.3,0,7.9,0.4,10.6,1.1c2.7,0.7,4.8,1.4,6.1,2l-5.1,15.3c-0.9-0.3-2.1-0.7-3.7-1.1
		c-1.5-0.5-3.6-0.7-6.1-0.7c-5.8,0-10,1.5-12.6,4.4c-2.5,3-3.8,7.3-3.8,13v127H720.7z"/>
	<path class="st0" d="M860.7,189.9v-68.1h17.6v115.2h-17.6v-19.5h-1.2c-2.7,5.9-6.9,10.8-12.5,14.9c-5.7,4.1-12.8,6.1-21.5,6.1
		c-7.2,0-13.5-1.6-19.1-4.7c-5.6-3.2-9.9-8-13.1-14.4c-3.2-6.5-4.8-14.6-4.8-24.4v-73.2h17.6v72c0,8.4,2.3,15.1,7,20.1
		c4.7,5,10.7,7.5,18,7.5c4.4,0,8.8-1.1,13.3-3.4c4.6-2.3,8.4-5.7,11.5-10.4C859.2,203.1,860.7,197.1,860.7,189.9z"/>
	<path class="st0" d="M928.1,83.4v153.7h-17.6V83.4H928.1z"/>
	<path class="st0" d="M977.9,83.4v153.7h-17.6V83.4H977.9z"/>
	<path class="st1" d="M786.9,375.1c-0.6-5.9-3-10.4-7.4-13.6c-4.4-3.2-10.3-4.9-17.8-4.9c-5.1,0-9.4,0.7-12.9,2.2
		c-3.5,1.4-6.2,3.4-8.1,5.9c-1.8,2.5-2.7,5.4-2.7,8.6c-0.1,2.7,0.5,5,1.7,7c1.2,2,3,3.7,5.1,5.2c2.2,1.4,4.7,2.6,7.5,3.7
		c2.8,1,5.9,1.9,9.1,2.6l13.2,3.2c6.4,1.5,12.3,3.4,17.7,5.8c5.4,2.4,10,5.4,14,8.9c3.9,3.5,7,7.7,9.1,12.5
		c2.2,4.8,3.3,10.3,3.4,16.5c0,9.1-2.4,17-6.9,23.7c-4.5,6.6-11,11.8-19.6,15.5c-8.5,3.6-18.7,5.4-30.7,5.4
		c-11.9,0-22.3-1.8-31.1-5.5c-8.8-3.7-15.6-9.1-20.6-16.3c-4.9-7.3-7.5-16.2-7.7-26.9h30.2c0.3,5,1.8,9.1,4.2,12.5
		c2.5,3.3,5.9,5.8,10.1,7.5c4.3,1.6,9.1,2.5,14.5,2.5c5.3,0,9.9-0.8,13.7-2.3c3.9-1.5,7-3.7,9.1-6.5c2.2-2.8,3.2-5.9,3.2-9.5
		c0-3.3-1-6.1-3-8.4c-1.9-2.3-4.8-4.2-8.5-5.8c-3.7-1.6-8.2-3-13.6-4.4l-16.1-4.1c-12.4-3-22.2-7.8-29.4-14.3
		c-7.2-6.5-10.8-15.2-10.7-26.2c0-9,2.3-16.9,7.1-23.6c4.8-6.7,11.5-12,19.9-15.7c8.4-3.8,18-5.7,28.8-5.7c10.9,0,20.5,1.9,28.6,5.7
		c8.2,3.8,14.6,9,19.1,15.7c4.6,6.7,6.9,14.5,7.1,23.4H786.9z"/>
	<path class="st1" d="M834.2,358.3v-25.9h121.1v25.9h-45.1V481h-30.8V358.3H834.2z"/>
	<path class="st1" d="M982.6,481h-33.4l50.9-148.6h40.2L1091,481h-33.4l-36.9-114.7h-1.2L982.6,481z"/>
	<path class="st1" d="M1231.9,384.4h-31.5c-0.6-4.1-1.8-7.8-3.5-11c-1.8-3.2-4.1-6-6.8-8.3c-2.8-2.3-6-4-9.6-5.2
		c-3.6-1.2-7.5-1.8-11.7-1.8c-7.6,0-14.3,1.9-19.9,5.7c-5.7,3.8-10.1,9.3-13.2,16.5c-3.1,7.2-4.7,16-4.7,26.3
		c0,10.6,1.6,19.5,4.7,26.7c3.2,7.2,7.6,12.7,13.2,16.3c5.7,3.7,12.2,5.5,19.6,5.5c4.2,0,8-0.6,11.6-1.7c3.6-1.1,6.8-2.7,9.6-4.9
		c2.8-2.2,5.1-4.8,6.9-7.9c1.9-3.1,3.2-6.6,3.9-10.6l31.5,0.1c-0.8,6.8-2.9,13.4-6.1,19.7c-3.2,6.3-7.6,11.9-13,16.9
		c-5.4,4.9-11.9,8.9-19.4,11.8c-7.5,2.9-16,4.3-25.4,4.3c-13.1,0-24.9-3-35.3-9c-10.3-6-18.5-14.7-24.5-26.1
		c-6-11.4-8.9-25.1-8.9-41.3c0-16.2,3-30,9.1-41.4c6-11.4,14.3-20,24.6-26c10.4-6,22-9,35-9c8.5,0,16.5,1.2,23.8,3.6
		c7.3,2.4,13.8,6,19.5,10.6c5.7,4.6,10.3,10.2,13.8,16.9C1228.6,368.2,1230.9,375.8,1231.9,384.4z"/>
	<path class="st1" d="M1254.3,481V332.4h31.2v65.5h1.9l53-65.5h37.4l-54.7,66.5l55.4,82.1h-37.3l-40.4-61.1l-15.3,18.9V481H1254.3z"
		/>
	<path class="st1" d="M1394,481V332.4h99.3v25.9h-68.2v35.4h63.1v25.9h-63.1v35.5h68.5V481H1394z"/>
	<path class="st1" d="M1570.4,481h-52.3V332.4h52.7c14.8,0,27.6,3,38.3,8.9c10.7,5.9,18.9,14.4,24.7,25.5
		c5.8,11.1,8.7,24.3,8.7,39.8c0,15.5-2.9,28.8-8.7,39.9c-5.7,11.1-14,19.7-24.8,25.6C1598.2,478,1585.3,481,1570.4,481z
		 M1549.3,454.1h19.8c9.2,0,17-1.6,23.3-4.9c6.3-3.3,11.1-8.5,14.2-15.5c3.2-7,4.8-16.1,4.8-27.1c0-11-1.6-20-4.8-26.9
		c-3.2-7-7.9-12.1-14.2-15.4c-6.3-3.3-14-4.9-23.3-4.9h-19.9V454.1z"/>
</g>
<g id="icon">
</g>
</svg>
